<svg width="26" height="23" viewBox="0 0 26 23" fill="none" xmlns="http://www.w3.org/2000/svg">
<rect width="26" height="23" fill="#E5E5E5"/>
<g id="Home" clip-path="url(#clip0_0_1)">
<rect width="1600" height="6414.17" transform="translate(-1303 -51.5833)" fill="white"/>
<g id="Group 309">
<g id="Rectangle 1" filter="url(#filter0_d_0_1)">
<rect x="-1303" y="-51.5833" width="1600" height="108.333" fill="white"/>
</g>
<g id="Nav top">
<g id="Frame" clip-path="url(#clip1_0_1)">
<g id="Group">
<path id="Vector" d="M0.833252 0.550283C1.01533 0.141555 1.3237 -0.00675741 1.76666 -0.000805063C3.11759 0.0185401 4.46901 0.00564331 5.82042 0.00663537C6.35198 0.00663537 6.58742 0.191654 6.70978 0.724885C6.87816 1.46198 7.03724 2.20156 7.20806 2.97686C7.30498 2.97686 7.40727 2.97686 7.51006 2.97686C13.3225 2.97686 19.1349 2.9838 24.9468 2.96594C25.542 2.96396 25.9845 3.38509 25.7848 4.0825C24.8279 7.42326 23.893 10.771 22.9498 14.1157C22.7848 14.701 22.5783 14.8563 21.9694 14.8563C17.6631 14.8563 13.3567 14.8563 9.05041 14.8563C8.60598 14.8563 8.32356 15.0244 8.21 15.3528C8.05092 15.8136 8.3495 16.2784 8.84582 16.3364C8.94224 16.3478 9.04111 16.3428 9.13852 16.3428C13.461 16.3433 17.784 16.3428 22.1064 16.3433C22.5773 16.3433 22.8979 16.6281 22.9121 17.0522C22.9263 17.4778 22.6174 17.8156 22.195 17.8245C21.8372 17.8319 21.4794 17.826 21.1143 17.8428C21.709 17.9897 22.1965 18.2987 22.5362 18.8116C22.8827 19.3349 22.9919 19.9167 22.8607 20.5358C22.637 21.5918 21.6596 22.3388 20.5906 22.2778C19.5289 22.2173 18.6674 21.3974 18.5338 20.3116C18.4237 19.4182 18.874 18.2198 20.3625 17.8379C17.132 17.8379 13.9456 17.8379 10.7587 17.8379C11.3421 17.9877 11.8291 18.2898 12.1693 18.7977C12.5134 19.3111 12.6269 19.88 12.5124 20.4946C12.32 21.5259 11.3773 22.2982 10.3255 22.2818C9.25109 22.2654 8.35341 21.4663 8.18748 20.3785C8.01079 19.2198 8.66667 18.2848 10.0127 17.827C9.64854 17.827 9.33186 17.8275 9.01468 17.827C7.88352 17.8255 7.02892 17.1821 6.75579 16.1266C6.50078 15.1415 6.96235 14.1464 7.92611 13.6008C7.95352 13.5854 7.97848 13.5656 8.01177 13.5428C7.13073 9.52592 6.25116 5.51355 5.36865 1.48976C4.59627 1.48976 3.84004 1.48976 3.08382 1.48976C2.6526 1.48976 2.21991 1.46893 1.78967 1.49571C1.34083 1.523 1.01876 1.36972 0.833252 0.946114C0.833252 0.81417 0.833252 0.682227 0.833252 0.550283ZM24.1343 4.46891C18.5906 4.46891 13.0733 4.46891 7.53356 4.46891C8.18553 7.44161 8.83407 10.4009 9.48261 13.3577C13.5427 13.3577 17.5847 13.3577 21.6277 13.3577C22.4633 10.3955 23.2949 7.44707 24.1343 4.46891ZM11.09 20.0755C11.1042 19.6861 10.7709 19.3294 10.3793 19.3151C9.99508 19.3007 9.64316 19.6385 9.62896 20.0353C9.61477 20.4247 9.94809 20.7813 10.3397 20.7957C10.7239 20.8101 11.0753 20.4728 11.09 20.0755ZM20.7521 19.3165C20.3703 19.2907 20.013 19.6186 19.9866 20.0189C19.9611 20.4058 20.2846 20.7679 20.6796 20.7947C21.0614 20.8205 21.4187 20.4926 21.4452 20.0923C21.4706 19.7049 21.1471 19.3433 20.7521 19.3165Z" fill="#2C2C2C"/>
</g>
</g>
</g>
</g>
<g id="Nav top/state8">
<g id="Group 752">
<circle id="Ellipse 23" cx="23.6667" cy="2.25004" r="6.66667" fill="#E05000"/>
<path id="3" d="M23.8342 5.85772C23.3059 5.85772 22.834 5.76667 22.4185 5.58458C22.0056 5.40248 21.6786 5.14986 21.4375 4.8267C21.199 4.50099 21.0707 4.12397 21.0528 3.69567H22.2608C22.2761 3.92906 22.3544 4.13167 22.4954 4.3035C22.639 4.47277 22.8263 4.60357 23.0571 4.6959C23.2879 4.78823 23.5444 4.8344 23.8265 4.8344C24.1368 4.8344 24.4113 4.78054 24.6498 4.67282C24.8909 4.5651 25.0794 4.41507 25.2153 4.22272C25.3512 4.0278 25.4192 3.80339 25.4192 3.54948C25.4192 3.28531 25.3512 3.05321 25.2153 2.85316C25.0819 2.65055 24.8857 2.49154 24.6267 2.37612C24.3702 2.26071 24.0599 2.20301 23.6957 2.20301H23.0302V1.23355H23.6957C23.9881 1.23355 24.2446 1.18097 24.4651 1.07582C24.6883 0.970664 24.8627 0.824475 24.9883 0.637251C25.114 0.447463 25.1768 0.225616 25.1768 -0.0282906C25.1768 -0.271938 25.1217 -0.483527 25.0114 -0.663056C24.9037 -0.845151 24.7498 -0.987492 24.5498 -1.09008C24.3523 -1.19267 24.1189 -1.24396 23.8496 -1.24396C23.5931 -1.24396 23.3533 -1.19652 23.1302 -1.10162C22.9096 -1.00929 22.7301 -0.875927 22.5916 -0.701527C22.4531 -0.529692 22.3787 -0.323233 22.3685 -0.0821499H21.2182C21.231 -0.507891 21.3567 -0.882339 21.5952 -1.20549C21.8363 -1.52865 22.1543 -1.78127 22.5493 -1.96336C22.9442 -2.14546 23.3828 -2.23651 23.865 -2.23651C24.3702 -2.23651 24.8062 -2.13776 25.173 -1.94028C25.5423 -1.74536 25.827 -1.48505 26.027 -1.15933C26.2296 -0.83361 26.3297 -0.477115 26.3271 -0.0898436C26.3297 0.351286 26.2066 0.725734 25.9578 1.0335C25.7116 1.34126 25.3833 1.54772 24.9729 1.65288V1.71443C25.4961 1.79394 25.9014 2.00168 26.1886 2.33765C26.4784 2.67363 26.622 3.0904 26.6195 3.58795C26.622 4.02139 26.5015 4.40994 26.2579 4.75361C26.0168 5.09728 25.6872 5.36786 25.2692 5.56534C24.8511 5.76026 24.3728 5.85772 23.8342 5.85772Z" fill="white"/>
</g>
</g>
</g>
<defs>
<filter id="filter0_d_0_1" x="-1311.33" y="-58.2499" width="1616.67" height="125" filterUnits="userSpaceOnUse" color-interpolation-filters="sRGB">
<feFlood flood-opacity="0" result="BackgroundImageFix"/>
<feColorMatrix in="SourceAlpha" type="matrix" values="0 0 0 0 0 0 0 0 0 0 0 0 0 0 0 0 0 0 127 0" result="hardAlpha"/>
<feOffset dy="1.66667"/>
<feGaussianBlur stdDeviation="4.16667"/>
<feComposite in2="hardAlpha" operator="out"/>
<feColorMatrix type="matrix" values="0 0 0 0 0 0 0 0 0 0 0 0 0 0 0 0 0 0 0.15 0"/>
<feBlend mode="normal" in2="BackgroundImageFix" result="effect1_dropShadow_0_1"/>
<feBlend mode="normal" in="SourceGraphic" in2="effect1_dropShadow_0_1" result="shape"/>
</filter>
<clipPath id="clip0_0_1">
<rect width="1600" height="6414.17" fill="white" transform="translate(-1303 -51.5833)"/>
</clipPath>
<clipPath id="clip1_0_1">
<rect width="25" height="22.2826" fill="white" transform="translate(0.833252)"/>
</clipPath>
</defs>
</svg>
