<svg width="258" height="135" viewBox="0 0 258 135" fill="none" xmlns="http://www.w3.org/2000/svg">
<path d="M71.1377 111.5V92.5" stroke="#525152" stroke-width="0.5"/>
<path d="M99.2998 73.1914C97.3174 74.0359 95.4735 75.1753 93.832 76.5713C91.385 78.7393 87.6963 82.7256 87.6963 82.7256C84.8713 82.5532 82.0358 82.7034 79.2451 83.1748C75.8434 83.8297 72.4932 84.7266 69.2188 85.8574C69.2188 85.8574 70.7619 98.284 75.3809 106.667C78.3597 111.87 82.5932 116.245 87.6963 119.393C87.6963 119.393 88.63 119.411 90.71 116.229C92.79 113.047 96.0176 106.667 96.0176 106.667L99.2998 73.1914Z" fill="#FD2727"/>
<path d="M110.138 74C126.982 74 140.638 65.0457 140.638 54C140.638 42.9543 126.982 34 110.138 34C93.293 34 79.6377 42.9543 79.6377 54C79.6377 65.0457 93.293 74 110.138 74Z" fill="#FFE6D4"/>
<path d="M134.057 75.4316L132.406 76.1602L134.057 45H87.0568L88.4943 76.0703C84.1574 73.5132 80.2765 70.2528 77.0119 66.4199C70.5684 58.1747 66.9749 48.06 66.7697 37.5977C66.6771 32.8965 67.5003 28.2225 69.1936 23.8359C70.3639 20.3304 72.2381 17.1008 74.7014 14.3457C77.3719 11.3411 80.5136 8.79044 84.0021 6.79297C87.8343 4.57831 91.9523 2.89912 96.2404 1.80274C105.379 -0.534884 114.95 -0.600226 124.119 1.61329C128.211 2.6002 132.16 4.1075 135.869 6.09766C139.264 7.90538 142.371 10.2079 145.088 12.9297C147.592 15.4218 149.614 18.3545 151.055 21.5801C155.455 30.2191 155.655 42.0327 151.598 53.1797C149.872 57.9918 147.372 62.4905 144.197 66.4981C141.465 70.0205 138.099 73.0014 134.272 75.2871L134.057 75.4316Z" fill="black"/>
<g filter="url(#filter0_d_4234_331955)">
<path d="M95.2705 66C97.2035 66 98.7705 64.433 98.7705 62.5C98.7705 60.567 97.2035 59 95.2705 59C93.3375 59 91.7705 60.567 91.7705 62.5C91.7705 64.433 93.3375 66 95.2705 66Z" fill="#FF8D8D"/>
</g>
<g filter="url(#filter1_d_4234_331955)">
<path d="M125.271 66C127.204 66 128.771 64.433 128.771 62.5C128.771 60.567 127.204 59 125.271 59C123.338 59 121.771 60.567 121.771 62.5C121.771 64.433 123.338 66 125.271 66Z" fill="#FF8D8D"/>
</g>
<path d="M123.298 134.998H96.9408C95.4018 131.607 94.1717 128.083 93.265 124.471C90.785 114.639 90.1549 104.433 91.4076 94.3711C91.8903 90.5006 92.7705 86.69 94.0345 83H126.208C127.468 86.6909 128.347 90.5012 128.831 94.3711C129.516 99.6823 129.655 105.049 129.247 110.389C128.913 115.141 128.156 119.855 126.984 124.473C126.076 128.085 124.843 131.609 123.298 134.998Z" fill="black"/>
<path d="M94.3389 82.1445C94.4722 81.7832 94.6103 81.4268 94.7529 81.0762C95.8926 78.0908 97.5205 75.3155 99.5693 72.8633L109.979 83.0879L120.567 72.7461C122.666 75.2245 124.326 78.0412 125.481 81.0762C125.549 81.2462 125.62 81.4178 125.683 81.5918L109.978 97.3418L94.3389 82.1445Z" fill="#656565"/>
<path d="M114.806 101.705L109.933 97.1191L125.743 81.4414C127.264 85.5168 128.3 89.7568 128.831 94.0742C129.237 97.1459 129.45 100.24 129.47 103.338L116.271 103.5L114.806 101.705Z" fill="#525152"/>
<path d="M91.4412 93.9688C91.9789 89.6915 92.9997 85.4887 94.4842 81.4414L115.992 101.842L90.826 107.16C90.6602 102.754 90.8662 98.3407 91.4412 93.9688Z" fill="black"/>
<path d="M92.0389 119.975C91.4209 116.8 90.9954 113.591 90.7655 110.365C90.5603 107.574 90.4961 104.774 90.5741 101.977H129.752C129.914 108.012 129.423 114.047 128.287 119.977L92.0389 119.975Z" fill="#FF5554"/>
<path d="M96.9424 135C96.0464 133.045 95.2591 131.042 94.585 129H125.659C124.985 131.043 124.197 133.046 123.298 135H96.9424Z" fill="#FF5352"/>
<path d="M131.299 29.0977C130.804 29.0957 130.323 29.2622 129.934 29.5697C129.605 29.8322 129.333 30.1588 129.134 30.5297C128.935 30.1588 128.663 29.8322 128.334 29.5697C127.947 29.263 127.467 29.0966 126.973 29.0977C126.636 29.1043 126.303 29.1792 125.995 29.3178C125.687 29.4565 125.41 29.656 125.181 29.9044C124.952 30.1528 124.775 30.4449 124.662 30.7633C124.549 31.0816 124.502 31.4195 124.522 31.7567C124.522 33.3947 125.837 34.5147 127.827 36.2107C128.165 36.4987 128.548 36.8257 128.946 37.1737C128.999 37.2198 129.066 37.2452 129.136 37.2452C129.206 37.2452 129.274 37.2198 129.326 37.1737C129.726 36.8257 130.107 36.4987 130.446 36.2107C132.436 34.5107 133.746 33.3947 133.746 31.7567C133.767 31.4198 133.72 31.0822 133.607 30.7642C133.494 30.4461 133.318 30.1542 133.089 29.9058C132.861 29.6575 132.584 29.4579 132.277 29.319C131.969 29.1801 131.637 29.1048 131.299 29.0977Z" fill="#FE2728"/>
<path d="M113.913 69.6906C118.569 69.4566 123.236 69.7952 127.809 70.6992C131.655 71.6536 135.298 73.2931 138.563 75.5393C138.563 75.5393 141.115 85.2076 139.545 94.5189C137.974 103.83 132.281 112.78 132.281 112.78C126.463 108.309 121.853 102.457 118.866 95.7553C114.274 84.979 113.913 69.6906 113.913 69.6906Z" fill="#FD2727"/>
<path d="M118.345 54.1904C120.105 52.9598 122.036 51.9926 124.075 51.3193C126.176 50.7492 128.36 50.5484 130.529 50.7275L129.9 53.9756C128.241 53.3573 126.476 53.0693 124.706 53.127C122.551 53.2305 120.416 53.5878 118.345 54.1904Z" fill="black"/>
<path d="M102.821 54.1904C101.061 52.9599 99.1303 51.9926 97.0908 51.3193C94.9904 50.7492 92.8067 50.5484 90.6377 50.7275L91.2676 53.9756C92.9268 53.3574 94.6902 53.0694 96.46 53.127C98.6147 53.2305 100.75 53.5878 102.821 54.1904Z" fill="black"/>
<path d="M110.406 65.8042H110.395H110.367C109.676 65.7242 109.006 65.521 108.388 65.2042C107.732 64.8104 107.142 64.3172 106.638 63.7422C107.867 64.0766 109.132 64.2574 110.406 64.2802C111.679 64.2574 112.945 64.0766 114.174 63.7422C113.67 64.3167 113.079 64.8093 112.424 65.2022C111.805 65.519 111.135 65.7222 110.445 65.8022H110.417L110.406 65.8042Z" fill="#FD5554"/>
<path d="M70.1061 112.809C70.0551 112.741 68.7165 111.516 68.7165 111.516L70.1061 111.273L70.0133 110.016L71.4479 110.928L73.1354 110.422L71.4489 113.004C73.2552 114.617 74.889 116.414 76.3239 118.365C77.3402 119.841 78.0188 121.522 78.3131 123.289C78.2085 124.001 77.9544 124.683 77.5661 125.289C77.1255 125.858 76.5748 126.332 75.9469 126.684C74.4108 127.244 72.796 127.561 71.1618 127.622C69.6112 127.58 68.08 127.262 66.6403 126.685C65.9609 126.41 65.3553 125.98 64.8707 125.431C64.4139 124.795 64.1135 124.06 63.9938 123.286C63.9938 123.286 63.8352 121.766 65.3932 119.145C66.8272 116.934 68.4019 114.818 70.1061 112.809Z" fill="#FD8D8D"/>
<path d="M71.1355 128.77C69.4645 128.799 67.8083 128.454 66.2875 127.76C65.7384 127.556 65.245 127.225 64.8471 126.795C64.4492 126.364 64.1578 125.847 63.9965 125.283C63.9676 125.169 63.9578 125.052 63.9675 124.934V123.247C64.0065 123.979 64.7675 124.666 66.1165 125.18C67.7297 125.739 69.4286 126.01 71.1355 125.98C75.0885 125.98 78.3035 124.729 78.3035 123.191V124.897L78.2745 125.283C78.1129 125.847 77.8214 126.364 77.4233 126.795C77.0252 127.225 76.5317 127.556 75.9825 127.76C74.4622 128.454 72.8062 128.799 71.1355 128.77Z" fill="#FD5554"/>
<path d="M70.7801 113.794C70.4976 113.794 70.2262 113.685 70.0221 113.489C69.815 113.292 69.6873 113.026 69.6631 112.741C69.6631 112.741 69.6631 112.715 69.6631 112.689C69.6631 112.663 69.6631 112.636 69.6631 112.636V112.126C69.6703 112.243 69.7043 112.356 69.7626 112.458C69.8209 112.559 69.9018 112.646 69.9991 112.71C70.2284 112.872 70.5028 112.956 70.7831 112.951C71.4011 112.951 71.9031 112.573 71.9031 112.109V112.624V112.741C71.8791 113.026 71.7517 113.292 71.5451 113.489C71.3392 113.686 71.065 113.796 70.7801 113.794Z" fill="#525152"/>
<path d="M71.1336 118.604C71.1337 118.485 71.1042 118.368 71.0478 118.264C70.9914 118.16 70.9098 118.071 70.8104 118.006C70.7111 117.942 70.5971 117.903 70.4789 117.893C70.3607 117.884 70.242 117.904 70.1336 117.952C70.1336 117.933 70.1336 117.912 70.1336 117.892C70.1336 117.703 70.0585 117.522 69.925 117.388C69.7915 117.255 69.6104 117.18 69.4216 117.18C69.2327 117.18 69.0516 117.255 68.9181 117.388C68.7846 117.522 68.7095 117.703 68.7095 117.892C68.7081 117.912 68.7081 117.932 68.7095 117.952C68.6189 117.912 68.5209 117.891 68.4219 117.891C68.3229 117.892 68.225 117.912 68.1345 117.953C68.0439 117.993 67.9628 118.051 67.8962 118.124C67.8295 118.198 67.7789 118.284 67.7476 118.378C67.7162 118.472 67.7048 118.571 67.714 118.67C67.7233 118.769 67.753 118.864 67.8013 118.951C67.8496 119.037 67.9153 119.112 67.9944 119.172C68.0735 119.232 68.1641 119.274 68.2606 119.297C68.1685 119.492 68.1272 119.707 68.1405 119.922C68.1538 120.138 68.2214 120.346 68.3369 120.528C68.4524 120.711 68.612 120.861 68.8011 120.965C68.9901 121.069 69.2023 121.123 69.4181 121.123C69.6338 121.123 69.846 121.069 70.035 120.965C70.2241 120.861 70.3837 120.711 70.4992 120.528C70.6147 120.346 70.6823 120.138 70.6956 119.922C70.7089 119.707 70.6676 119.492 70.5755 119.297C70.7318 119.26 70.871 119.172 70.9706 119.046C71.0703 118.92 71.1245 118.764 71.1246 118.604H71.1336ZM69.5836 118.296C69.5885 118.284 69.5975 118.274 69.6089 118.268C69.6203 118.262 69.6335 118.26 69.6462 118.262C69.6589 118.265 69.6703 118.272 69.6786 118.282C69.6868 118.292 69.6913 118.304 69.6913 118.317C69.6913 118.33 69.6868 118.343 69.6786 118.353C69.6703 118.363 69.6589 118.37 69.6462 118.372C69.6335 118.375 69.6203 118.373 69.6089 118.367C69.5975 118.361 69.5885 118.351 69.5836 118.339C69.5807 118.332 69.5793 118.325 69.5793 118.317C69.5793 118.31 69.5807 118.303 69.5836 118.296ZM69.4275 118.222C69.4405 118.222 69.453 118.227 69.4629 118.235C69.4728 118.243 69.4795 118.255 69.4818 118.267C69.4842 118.28 69.482 118.293 69.4758 118.305C69.4695 118.316 69.4596 118.325 69.4476 118.33C69.4355 118.334 69.4222 118.335 69.4099 118.331C69.3975 118.327 69.3869 118.319 69.3798 118.308C69.3728 118.297 69.3697 118.284 69.3711 118.272C69.3725 118.259 69.3783 118.247 69.3876 118.238C69.3928 118.233 69.3991 118.228 69.406 118.226C69.4128 118.223 69.4202 118.222 69.4275 118.222ZM69.1766 118.272C69.1868 118.267 69.198 118.266 69.2089 118.268C69.2198 118.27 69.2299 118.276 69.2377 118.284C69.2456 118.291 69.251 118.301 69.2532 118.312C69.2554 118.323 69.2543 118.334 69.2501 118.345C69.2459 118.355 69.2387 118.364 69.2295 118.37C69.2203 118.376 69.2095 118.379 69.1984 118.379C69.1873 118.379 69.1764 118.376 69.1672 118.37C69.158 118.364 69.1508 118.355 69.1466 118.345C69.1409 118.331 69.1409 118.316 69.1465 118.302C69.1521 118.288 69.1629 118.277 69.1766 118.272ZM68.9656 118.413C68.9748 118.404 68.9869 118.398 68.9998 118.397C69.0127 118.396 69.0256 118.399 69.0362 118.407C69.0469 118.414 69.0547 118.425 69.0583 118.437C69.0619 118.45 69.0611 118.463 69.0561 118.475C69.051 118.487 69.042 118.496 69.0306 118.502C69.0191 118.508 69.0059 118.51 68.9933 118.508C68.9806 118.505 68.9692 118.498 68.9611 118.488C68.9529 118.478 68.9485 118.466 68.9485 118.453C68.9486 118.445 68.9501 118.438 68.953 118.431C68.9559 118.424 68.9602 118.418 68.9656 118.413ZM68.8146 118.647C68.8184 118.636 68.8253 118.627 68.8342 118.621C68.8432 118.614 68.8539 118.611 68.865 118.61C68.876 118.61 68.887 118.613 68.8964 118.619C68.9058 118.624 68.9133 118.633 68.918 118.643C68.9226 118.653 68.9241 118.664 68.9223 118.675C68.9206 118.686 68.9156 118.696 68.9081 118.704C68.9005 118.712 68.8908 118.718 68.88 118.721C68.8692 118.723 68.8579 118.723 68.8475 118.719C68.8407 118.716 68.8343 118.712 68.8289 118.707C68.8236 118.702 68.8192 118.696 68.8161 118.69C68.8131 118.683 68.8114 118.676 68.8111 118.668C68.8108 118.661 68.812 118.654 68.8146 118.647ZM68.7736 118.876C68.7744 118.864 68.7793 118.852 68.7873 118.843C68.7953 118.834 68.8061 118.827 68.8181 118.825C68.83 118.822 68.8425 118.824 68.8535 118.829C68.8645 118.834 68.8735 118.843 68.8791 118.854C68.8847 118.865 68.8867 118.877 68.8846 118.889C68.8826 118.901 68.8766 118.912 68.8677 118.921C68.8589 118.929 68.8475 118.934 68.8354 118.935C68.8232 118.937 68.811 118.934 68.8005 118.928C68.7915 118.922 68.7842 118.914 68.7794 118.905C68.7747 118.896 68.7726 118.885 68.7736 118.875V118.876ZM68.8966 119.158C68.8864 119.162 68.8751 119.163 68.8643 119.161C68.8535 119.159 68.8435 119.153 68.8357 119.146C68.8279 119.138 68.8225 119.128 68.8203 119.117C68.8181 119.106 68.8191 119.095 68.8233 119.085C68.8274 119.075 68.8345 119.066 68.8436 119.06C68.8527 119.053 68.8635 119.05 68.8745 119.05C68.8855 119.05 68.8964 119.053 68.9056 119.059C68.9149 119.065 68.9222 119.074 68.9266 119.084C68.9295 119.091 68.9311 119.098 68.9311 119.105C68.9312 119.113 68.9299 119.12 68.9271 119.127C68.9243 119.134 68.9201 119.14 68.9149 119.145C68.9097 119.151 68.9034 119.155 68.8966 119.158ZM69.0435 119.339C69.0357 119.347 69.0258 119.352 69.0149 119.354C69.004 119.356 68.9927 119.355 68.9825 119.351C68.9722 119.347 68.9635 119.34 68.9573 119.33C68.9512 119.321 68.9479 119.31 68.9479 119.299C68.9479 119.288 68.9512 119.277 68.9573 119.268C68.9635 119.259 68.9722 119.252 68.9825 119.247C68.9927 119.243 69.004 119.242 69.0149 119.244C69.0258 119.246 69.0357 119.252 69.0435 119.26C69.0532 119.271 69.0581 119.285 69.0574 119.299C69.0566 119.314 69.0502 119.328 69.0395 119.338L69.0435 119.339ZM69.2695 119.456C69.2646 119.467 69.2558 119.477 69.2445 119.483C69.2333 119.489 69.2204 119.491 69.208 119.488C69.1955 119.486 69.1844 119.479 69.1763 119.469C69.1683 119.459 69.1639 119.447 69.1639 119.434C69.1639 119.422 69.1683 119.409 69.1763 119.399C69.1844 119.39 69.1955 119.383 69.208 119.38C69.2204 119.378 69.2333 119.38 69.2445 119.386C69.2558 119.391 69.2646 119.401 69.2695 119.413C69.2724 119.42 69.2738 119.427 69.2738 119.434C69.2738 119.442 69.2724 119.449 69.2695 119.456ZM69.4266 119.53C69.4155 119.53 69.4047 119.526 69.3954 119.52C69.3862 119.514 69.3791 119.505 69.3748 119.495C69.3706 119.485 69.3695 119.474 69.3716 119.463C69.3738 119.452 69.3791 119.442 69.387 119.434C69.3948 119.426 69.4048 119.421 69.4156 119.419C69.4265 119.417 69.4377 119.418 69.448 119.422C69.4582 119.426 69.467 119.433 69.4731 119.443C69.4793 119.452 69.4826 119.463 69.4826 119.474C69.4826 119.489 69.4767 119.503 69.4662 119.513C69.4557 119.524 69.4414 119.53 69.4266 119.53ZM69.6775 119.48C69.6673 119.484 69.6561 119.485 69.6453 119.483C69.6345 119.481 69.6245 119.475 69.6167 119.468C69.6089 119.46 69.6035 119.45 69.6013 119.439C69.5991 119.428 69.6001 119.417 69.6043 119.407C69.6084 119.397 69.6155 119.388 69.6246 119.382C69.6337 119.375 69.6445 119.372 69.6555 119.372C69.6665 119.372 69.6774 119.375 69.6866 119.381C69.6959 119.387 69.7032 119.396 69.7075 119.406C69.7105 119.413 69.7121 119.42 69.7122 119.427C69.7122 119.435 69.7108 119.442 69.7081 119.449C69.7053 119.456 69.7011 119.462 69.6959 119.467C69.6907 119.473 69.6844 119.477 69.6775 119.48ZM69.4266 119.352C69.3324 119.352 69.2404 119.324 69.1621 119.271C69.0838 119.219 69.0228 119.145 68.9868 119.058C68.9508 118.971 68.9413 118.875 68.9597 118.783C68.9781 118.69 69.0234 118.606 69.09 118.539C69.1565 118.473 69.2414 118.427 69.3337 118.409C69.426 118.39 69.5217 118.4 69.6087 118.436C69.6957 118.472 69.77 118.533 69.8223 118.611C69.8746 118.69 69.9026 118.782 69.9026 118.876C69.9026 119.002 69.8524 119.123 69.7631 119.212C69.6739 119.302 69.5528 119.352 69.4266 119.352ZM69.8885 119.338C69.8807 119.346 69.8707 119.351 69.8599 119.353C69.849 119.355 69.8377 119.354 69.8275 119.35C69.8172 119.346 69.8085 119.339 69.8023 119.329C69.7962 119.32 69.7929 119.309 69.7929 119.298C69.7929 119.287 69.7962 119.276 69.8023 119.267C69.8085 119.258 69.8172 119.251 69.8275 119.246C69.8377 119.242 69.849 119.241 69.8599 119.243C69.8707 119.245 69.8807 119.251 69.8885 119.259C69.899 119.269 69.9049 119.283 69.9049 119.298C69.9049 119.313 69.899 119.327 69.8885 119.338ZM69.8885 118.492C69.8794 118.5 69.8675 118.506 69.8549 118.507C69.8423 118.508 69.8297 118.504 69.8193 118.497C69.8089 118.49 69.8012 118.479 69.7977 118.467C69.7942 118.455 69.795 118.442 69.7999 118.43C69.8049 118.419 69.8137 118.409 69.8249 118.403C69.8361 118.397 69.849 118.396 69.8614 118.398C69.8738 118.401 69.885 118.407 69.893 118.417C69.9011 118.427 69.9055 118.439 69.9055 118.452C69.9055 118.459 69.904 118.467 69.9011 118.473C69.8982 118.48 69.8939 118.486 69.8885 118.492ZM69.9566 118.592C69.9687 118.586 69.9823 118.586 69.995 118.589C70.0077 118.593 70.0188 118.601 70.0262 118.612C70.0336 118.623 70.037 118.636 70.0357 118.65C70.0344 118.663 70.0286 118.675 70.0193 118.684C70.0099 118.694 69.9976 118.7 69.9844 118.701C69.9712 118.702 69.958 118.699 69.947 118.691C69.936 118.684 69.928 118.673 69.9243 118.66C69.9205 118.647 69.9214 118.634 69.9266 118.622C69.9322 118.608 69.943 118.597 69.9566 118.592ZM70.0386 119.103C70.0336 119.114 70.0248 119.124 70.0135 119.13C70.0023 119.136 69.9894 119.138 69.977 119.135C69.9645 119.133 69.9534 119.126 69.9453 119.116C69.9373 119.106 69.9329 119.094 69.9329 119.081C69.9329 119.069 69.9373 119.056 69.9453 119.046C69.9534 119.037 69.9645 119.03 69.977 119.027C69.9894 119.025 70.0023 119.027 70.0135 119.033C70.0248 119.038 70.0336 119.048 70.0386 119.06C70.0414 119.067 70.0428 119.074 70.0428 119.081C70.0428 119.089 70.0414 119.096 70.0386 119.103ZM70.0236 118.93C70.0125 118.93 70.0017 118.926 69.9924 118.92C69.9832 118.914 69.9761 118.905 69.9718 118.895C69.9676 118.885 69.9665 118.874 69.9686 118.863C69.9708 118.852 69.9761 118.842 69.984 118.834C69.9918 118.826 70.0018 118.821 70.0126 118.819C70.0235 118.817 70.0347 118.818 70.045 118.822C70.0552 118.826 70.064 118.833 70.0701 118.843C70.0763 118.852 70.0796 118.863 70.0796 118.874C70.0796 118.889 70.0737 118.903 70.0632 118.913C70.0527 118.924 70.0384 118.93 70.0236 118.93Z" fill="#F4B869"/>
<path d="M74.9775 120.899C74.9775 120.822 74.9583 120.746 74.9215 120.678C74.8848 120.61 74.8318 120.552 74.7672 120.51C74.7026 120.468 74.6285 120.442 74.5515 120.436C74.4746 120.429 74.3973 120.442 74.3265 120.473C74.3265 120.46 74.3265 120.447 74.3265 120.434C74.3265 120.31 74.2775 120.192 74.1903 120.105C74.1031 120.018 73.9849 119.969 73.8615 119.969C73.7382 119.969 73.6199 120.018 73.5327 120.105C73.4455 120.192 73.3966 120.31 73.3966 120.434C73.3956 120.447 73.3956 120.46 73.3966 120.473C73.3373 120.446 73.2732 120.433 73.2083 120.432C73.1434 120.432 73.0792 120.446 73.0199 120.472C72.9605 120.498 72.9072 120.536 72.8635 120.584C72.8198 120.632 72.7866 120.689 72.7661 120.75C72.7456 120.812 72.7381 120.877 72.7443 120.942C72.7504 121.006 72.77 121.069 72.8018 121.125C72.8336 121.182 72.8769 121.231 72.9288 121.27C72.9808 121.309 73.0403 121.336 73.1035 121.351C73.0434 121.478 73.0164 121.619 73.0252 121.759C73.0339 121.9 73.078 122.036 73.1534 122.155C73.2288 122.274 73.3331 122.372 73.4566 122.44C73.58 122.508 73.7186 122.544 73.8595 122.544C74.0004 122.544 74.1391 122.508 74.2625 122.44C74.386 122.372 74.4903 122.274 74.5657 122.155C74.6411 122.036 74.6852 121.9 74.6939 121.759C74.7027 121.619 74.6757 121.478 74.6155 121.351C74.7181 121.327 74.8097 121.27 74.8755 121.188C74.9412 121.106 74.9772 121.004 74.9775 120.899ZM73.9675 120.698C73.9708 120.69 73.9767 120.683 73.9842 120.679C73.9918 120.675 74.0005 120.674 74.0089 120.675C74.0173 120.677 74.0249 120.682 74.0304 120.688C74.0358 120.695 74.0388 120.703 74.0388 120.712C74.0388 120.72 74.0358 120.729 74.0304 120.735C74.0249 120.742 74.0173 120.746 74.0089 120.748C74.0005 120.75 73.9918 120.748 73.9842 120.744C73.9767 120.74 73.9708 120.734 73.9675 120.726C73.9639 120.717 73.9639 120.707 73.9675 120.698ZM73.8675 120.649C73.8761 120.649 73.8844 120.652 73.8911 120.657C73.8978 120.662 73.9024 120.67 73.9041 120.678C73.9058 120.687 73.9046 120.695 73.9006 120.703C73.8967 120.711 73.8902 120.716 73.8823 120.72C73.8744 120.723 73.8656 120.724 73.8574 120.721C73.8492 120.719 73.8421 120.714 73.8373 120.707C73.8324 120.699 73.8302 120.691 73.831 120.682C73.8318 120.674 73.8355 120.666 73.8415 120.66C73.8484 120.653 73.8578 120.649 73.8675 120.649ZM73.6995 120.679C73.7063 120.676 73.7138 120.675 73.721 120.677C73.7282 120.678 73.7348 120.682 73.74 120.687C73.7452 120.692 73.7487 120.698 73.7501 120.706C73.7516 120.713 73.7508 120.72 73.748 120.727C73.7452 120.734 73.7404 120.74 73.7343 120.744C73.7282 120.748 73.721 120.75 73.7137 120.75C73.7063 120.75 73.6991 120.748 73.6931 120.743C73.687 120.739 73.6823 120.734 73.6795 120.727C73.6759 120.718 73.6759 120.708 73.6797 120.699C73.6834 120.69 73.6906 120.683 73.6995 120.679ZM73.5615 120.779C73.5676 120.773 73.5756 120.769 73.5842 120.768C73.5927 120.767 73.6012 120.77 73.6083 120.774C73.6154 120.779 73.6206 120.786 73.623 120.795C73.6254 120.803 73.625 120.812 73.6216 120.819C73.6183 120.827 73.6123 120.834 73.6047 120.838C73.5971 120.842 73.5884 120.843 73.58 120.841C73.5716 120.84 73.5641 120.835 73.5587 120.828C73.5534 120.822 73.5505 120.813 73.5505 120.805C73.5506 120.795 73.5546 120.786 73.5615 120.779ZM73.4615 120.932C73.464 120.925 73.4684 120.919 73.4743 120.914C73.4802 120.91 73.4873 120.907 73.4946 120.907C73.502 120.907 73.5092 120.909 73.5155 120.912C73.5218 120.916 73.5268 120.922 73.5299 120.928C73.5331 120.935 73.5341 120.942 73.533 120.95C73.5319 120.957 73.5286 120.964 73.5236 120.969C73.5187 120.975 73.5122 120.978 73.5051 120.98C73.4979 120.982 73.4904 120.981 73.4835 120.979C73.4789 120.977 73.4748 120.973 73.4715 120.97C73.4681 120.966 73.4657 120.961 73.4641 120.956C73.4626 120.951 73.4622 120.946 73.4628 120.941C73.4633 120.936 73.465 120.931 73.4675 120.927L73.4615 120.932ZM73.4345 121.081C73.435 121.073 73.4381 121.065 73.4434 121.059C73.4486 121.053 73.4558 121.049 73.4636 121.047C73.4715 121.045 73.4798 121.046 73.4871 121.049C73.4944 121.053 73.5004 121.059 73.5042 121.066C73.5079 121.073 73.5093 121.081 73.508 121.089C73.5067 121.097 73.5028 121.104 73.497 121.11C73.4911 121.115 73.4836 121.119 73.4756 121.12C73.4676 121.121 73.4595 121.119 73.4526 121.115C73.4468 121.111 73.4422 121.105 73.4394 121.099C73.4365 121.093 73.4355 121.086 73.4365 121.079L73.4345 121.081ZM73.5145 121.265C73.5078 121.268 73.5003 121.268 73.4931 121.267C73.4859 121.266 73.4793 121.262 73.4741 121.257C73.4689 121.252 73.4654 121.245 73.4639 121.238C73.4625 121.231 73.4633 121.223 73.4661 121.216C73.4689 121.21 73.4737 121.204 73.4798 121.2C73.4859 121.196 73.4931 121.194 73.5004 121.194C73.5078 121.194 73.5149 121.196 73.521 121.2C73.5271 121.204 73.5318 121.21 73.5346 121.217C73.5369 121.225 73.5364 121.234 73.5332 121.241C73.5299 121.249 73.524 121.256 73.5165 121.26L73.5145 121.265ZM73.6145 121.383C73.6094 121.388 73.6028 121.392 73.5956 121.393C73.5884 121.394 73.581 121.394 73.5742 121.391C73.5674 121.388 73.5616 121.383 73.5575 121.377C73.5534 121.371 73.5512 121.364 73.5512 121.357C73.5512 121.349 73.5534 121.342 73.5575 121.336C73.5616 121.33 73.5674 121.325 73.5742 121.323C73.581 121.32 73.5884 121.319 73.5956 121.32C73.6028 121.322 73.6094 121.326 73.6145 121.331C73.62 121.338 73.6228 121.346 73.6224 121.355C73.622 121.364 73.6185 121.372 73.6125 121.379L73.6145 121.383ZM73.7625 121.46C73.7593 121.467 73.7535 121.474 73.7462 121.478C73.7388 121.481 73.7304 121.483 73.7222 121.481C73.7141 121.479 73.7068 121.475 73.7015 121.469C73.6963 121.462 73.6934 121.454 73.6934 121.446C73.6934 121.437 73.6963 121.429 73.7015 121.423C73.7068 121.417 73.7141 121.412 73.7222 121.41C73.7304 121.409 73.7388 121.41 73.7462 121.414C73.7535 121.418 73.7593 121.424 73.7625 121.432C73.7662 121.441 73.7662 121.451 73.7625 121.46ZM73.8625 121.508C73.8552 121.508 73.8481 121.506 73.842 121.502C73.8359 121.497 73.8312 121.492 73.8284 121.485C73.8256 121.478 73.8248 121.471 73.8263 121.464C73.8277 121.456 73.8312 121.45 73.8364 121.445C73.8416 121.439 73.8481 121.436 73.8553 121.434C73.8625 121.433 73.8699 121.434 73.8767 121.437C73.8835 121.439 73.8892 121.444 73.8933 121.45C73.8974 121.456 73.8995 121.463 73.8995 121.471C73.8995 121.476 73.8986 121.48 73.8967 121.485C73.8949 121.489 73.8921 121.493 73.8887 121.497C73.8853 121.5 73.8812 121.503 73.8767 121.505C73.8722 121.507 73.8674 121.508 73.8625 121.508ZM74.0265 121.475C74.0198 121.478 74.0123 121.478 74.0051 121.477C73.9979 121.476 73.9913 121.472 73.9861 121.467C73.9809 121.462 73.9774 121.455 73.976 121.448C73.9745 121.441 73.9753 121.433 73.9781 121.426C73.9809 121.42 73.9857 121.414 73.9918 121.41C73.9979 121.406 74.0051 121.404 74.0124 121.404C74.0198 121.404 74.0269 121.406 74.033 121.41C74.0391 121.414 74.0438 121.42 74.0465 121.427C74.0502 121.436 74.0501 121.446 74.0464 121.455C74.0426 121.464 74.0355 121.471 74.0265 121.475ZM73.8625 121.392C73.801 121.392 73.7409 121.374 73.6898 121.339C73.6386 121.305 73.5988 121.257 73.5752 121.2C73.5517 121.143 73.5455 121.08 73.5575 121.02C73.5695 120.96 73.5991 120.904 73.6426 120.861C73.6861 120.817 73.7415 120.788 73.8019 120.776C73.8622 120.764 73.9247 120.77 73.9816 120.793C74.0384 120.817 74.087 120.857 74.1211 120.908C74.1553 120.959 74.1735 121.019 74.1735 121.081C74.1735 121.163 74.1408 121.242 74.0824 121.301C74.0241 121.359 73.945 121.392 73.8625 121.392ZM74.1625 121.383C74.1575 121.388 74.1511 121.391 74.1441 121.393C74.1371 121.394 74.1299 121.393 74.1233 121.39C74.1168 121.388 74.1111 121.383 74.1072 121.377C74.1032 121.371 74.1011 121.364 74.1011 121.357C74.1011 121.35 74.1032 121.343 74.1072 121.337C74.1111 121.331 74.1168 121.327 74.1233 121.324C74.1299 121.321 74.1371 121.321 74.1441 121.322C74.1511 121.323 74.1575 121.327 74.1625 121.332C74.1691 121.339 74.1727 121.348 74.1727 121.357C74.1727 121.367 74.1691 121.376 74.1625 121.383ZM74.1625 120.831C74.1566 120.837 74.1488 120.84 74.1405 120.841C74.1323 120.841 74.124 120.839 74.1172 120.835C74.1103 120.83 74.1053 120.823 74.103 120.815C74.1007 120.807 74.1012 120.798 74.1044 120.791C74.1076 120.783 74.1134 120.777 74.1207 120.773C74.1281 120.769 74.1365 120.768 74.1447 120.77C74.1528 120.771 74.1601 120.776 74.1654 120.782C74.1706 120.788 74.1735 120.796 74.1735 120.805C74.1735 120.815 74.1695 120.824 74.1625 120.831ZM74.2065 120.897C74.2145 120.893 74.2233 120.893 74.2315 120.896C74.2396 120.898 74.2467 120.903 74.2515 120.91C74.2562 120.917 74.2584 120.926 74.2575 120.935C74.2567 120.943 74.2529 120.951 74.2469 120.957C74.2408 120.963 74.2329 120.967 74.2243 120.968C74.2158 120.969 74.2073 120.966 74.2002 120.962C74.193 120.957 74.1878 120.95 74.1853 120.942C74.1828 120.933 74.1833 120.925 74.1865 120.917C74.1903 120.908 74.1975 120.901 74.2065 120.897ZM74.2605 121.23C74.2573 121.237 74.2515 121.244 74.2442 121.248C74.2368 121.251 74.2284 121.253 74.2202 121.251C74.2121 121.249 74.2048 121.245 74.1995 121.239C74.1943 121.232 74.1914 121.224 74.1914 121.216C74.1914 121.207 74.1943 121.199 74.1995 121.193C74.2048 121.187 74.2121 121.182 74.2202 121.18C74.2284 121.179 74.2368 121.18 74.2442 121.184C74.2515 121.188 74.2573 121.194 74.2605 121.202C74.2642 121.211 74.2642 121.221 74.2605 121.23ZM74.2505 121.117C74.2432 121.117 74.2361 121.115 74.23 121.111C74.2239 121.106 74.2192 121.101 74.2164 121.094C74.2136 121.087 74.2128 121.08 74.2143 121.073C74.2157 121.065 74.2192 121.059 74.2244 121.054C74.2296 121.048 74.2361 121.045 74.2433 121.043C74.2505 121.042 74.2579 121.043 74.2647 121.046C74.2715 121.048 74.2772 121.053 74.2813 121.059C74.2854 121.065 74.2875 121.072 74.2875 121.08C74.2875 121.09 74.2836 121.099 74.2767 121.106C74.2698 121.113 74.2604 121.117 74.2505 121.117Z" fill="#F4B869"/>
<path d="M71.1496 122.801C71.1496 122.744 71.1353 122.688 71.1081 122.638C71.0809 122.587 71.0416 122.545 70.9938 122.513C70.946 122.482 70.8911 122.463 70.8341 122.459C70.7772 122.454 70.7199 122.463 70.6676 122.486C70.6676 122.477 70.6676 122.467 70.6676 122.457C70.6676 122.366 70.6314 122.279 70.5668 122.214C70.5023 122.15 70.4148 122.113 70.3236 122.113C70.2324 122.113 70.1449 122.15 70.0804 122.214C70.0159 122.279 69.9796 122.366 69.9796 122.457C69.9789 122.467 69.9789 122.477 69.9796 122.486C69.9358 122.467 69.8886 122.457 69.8408 122.458C69.793 122.458 69.7458 122.468 69.7022 122.487C69.6586 122.507 69.6195 122.535 69.5874 122.57C69.5553 122.606 69.5309 122.647 69.5157 122.693C69.5006 122.738 69.4951 122.786 69.4995 122.833C69.504 122.881 69.5182 122.927 69.5414 122.969C69.5647 123.011 69.5963 123.047 69.6344 123.076C69.6725 123.105 69.7161 123.125 69.7626 123.136C69.718 123.231 69.6979 123.335 69.7043 123.439C69.7106 123.543 69.7433 123.644 69.7991 123.732C69.8549 123.82 69.9322 123.893 70.0236 123.943C70.115 123.994 70.2177 124.02 70.3221 124.02C70.4265 124.02 70.5292 123.994 70.6206 123.943C70.7121 123.893 70.7893 123.82 70.8451 123.732C70.9009 123.644 70.9336 123.543 70.94 123.439C70.9463 123.335 70.9263 123.231 70.8816 123.136C70.9573 123.119 71.0247 123.076 71.073 123.015C71.1213 122.954 71.1476 122.879 71.1476 122.801H71.1496ZM70.4006 122.652C70.403 122.647 70.4074 122.642 70.4129 122.639C70.4184 122.636 70.4247 122.635 70.4308 122.636C70.4369 122.638 70.4424 122.641 70.4464 122.646C70.4503 122.651 70.4525 122.657 70.4525 122.663C70.4525 122.669 70.4503 122.675 70.4464 122.68C70.4424 122.685 70.4369 122.688 70.4308 122.689C70.4247 122.69 70.4184 122.69 70.4129 122.687C70.4074 122.684 70.403 122.679 70.4006 122.673C70.3992 122.67 70.3985 122.666 70.3985 122.663C70.3985 122.659 70.3992 122.656 70.4006 122.652ZM70.3246 122.616C70.3308 122.616 70.3369 122.618 70.3418 122.622C70.3466 122.626 70.35 122.632 70.3512 122.638C70.3525 122.644 70.3516 122.65 70.3487 122.656C70.3458 122.661 70.341 122.666 70.3353 122.668C70.3295 122.671 70.3231 122.671 70.3171 122.669C70.3111 122.667 70.3059 122.664 70.3024 122.658C70.2989 122.653 70.2973 122.647 70.2979 122.641C70.2985 122.635 70.3012 122.629 70.3056 122.624C70.3108 122.62 70.3176 122.617 70.3246 122.617V122.616ZM70.2026 122.64C70.2076 122.638 70.213 122.638 70.2182 122.639C70.2235 122.64 70.2283 122.643 70.232 122.646C70.2357 122.65 70.2383 122.655 70.2392 122.66C70.2402 122.666 70.2396 122.671 70.2375 122.676C70.2354 122.681 70.2319 122.685 70.2274 122.688C70.2229 122.691 70.2177 122.692 70.2123 122.692C70.207 122.692 70.2018 122.691 70.1974 122.688C70.193 122.685 70.1896 122.68 70.1876 122.675C70.185 122.669 70.1851 122.661 70.1879 122.655C70.1907 122.648 70.196 122.643 70.2026 122.64ZM70.1026 122.708C70.107 122.704 70.1129 122.701 70.1191 122.701C70.1253 122.7 70.1315 122.702 70.1367 122.705C70.1419 122.709 70.1457 122.714 70.1475 122.72C70.1493 122.726 70.1489 122.732 70.1465 122.738C70.1441 122.744 70.1397 122.748 70.1342 122.751C70.1287 122.754 70.1223 122.755 70.1162 122.754C70.11 122.753 70.1045 122.749 70.1006 122.744C70.0967 122.74 70.0946 122.734 70.0946 122.727C70.0947 122.72 70.0975 122.713 70.1026 122.708ZM70.0286 122.823C70.0305 122.818 70.0338 122.814 70.0382 122.811C70.0425 122.808 70.0476 122.806 70.053 122.806C70.0583 122.806 70.0635 122.807 70.0681 122.81C70.0726 122.813 70.0762 122.817 70.0784 122.822C70.0806 122.827 70.0813 122.832 70.0805 122.837C70.0797 122.842 70.0773 122.847 70.0737 122.851C70.0701 122.855 70.0654 122.858 70.0602 122.859C70.055 122.86 70.0496 122.86 70.0446 122.858C70.0412 122.857 70.0382 122.855 70.0355 122.853C70.0329 122.85 70.0308 122.847 70.0293 122.844C70.0278 122.841 70.027 122.837 70.0268 122.834C70.0267 122.83 70.0273 122.827 70.0286 122.823ZM70.0086 122.934C70.009 122.928 70.0113 122.923 70.0152 122.918C70.0191 122.914 70.0243 122.911 70.03 122.91C70.0358 122.909 70.0418 122.909 70.0471 122.912C70.0524 122.914 70.0568 122.918 70.0595 122.924C70.0622 122.929 70.0632 122.935 70.0622 122.941C70.0612 122.946 70.0583 122.952 70.054 122.956C70.0497 122.96 70.0442 122.962 70.0384 122.963C70.0325 122.964 70.0266 122.962 70.0216 122.959C70.0172 122.957 70.0136 122.953 70.0113 122.948C70.009 122.944 70.0081 122.938 70.0086 122.933V122.934ZM70.0686 123.07C70.0637 123.072 70.0583 123.073 70.0531 123.071C70.0479 123.07 70.0432 123.068 70.0395 123.064C70.0358 123.06 70.0333 123.055 70.0323 123.05C70.0314 123.045 70.0319 123.04 70.034 123.035C70.036 123.03 70.0394 123.026 70.0438 123.023C70.0482 123.02 70.0533 123.018 70.0586 123.018C70.0639 123.018 70.0691 123.02 70.0735 123.022C70.078 123.025 70.0815 123.029 70.0836 123.034C70.0862 123.041 70.0861 123.048 70.0833 123.055C70.0805 123.061 70.0752 123.067 70.0686 123.069V123.07ZM70.1396 123.157C70.1358 123.161 70.131 123.164 70.1258 123.165C70.1205 123.166 70.1151 123.165 70.1102 123.163C70.1052 123.161 70.101 123.158 70.098 123.153C70.095 123.149 70.0934 123.144 70.0934 123.138C70.0934 123.133 70.095 123.128 70.098 123.123C70.101 123.119 70.1052 123.115 70.1102 123.113C70.1151 123.111 70.1205 123.111 70.1258 123.112C70.131 123.113 70.1358 123.115 70.1396 123.119C70.1443 123.124 70.1469 123.131 70.1469 123.138C70.1469 123.145 70.1443 123.151 70.1396 123.156V123.157ZM70.2486 123.214C70.2462 123.22 70.2419 123.225 70.2363 123.228C70.2308 123.231 70.2245 123.231 70.2184 123.23C70.2123 123.229 70.2068 123.226 70.2028 123.221C70.1989 123.216 70.1967 123.21 70.1967 123.204C70.1967 123.198 70.1989 123.192 70.2028 123.187C70.2068 123.182 70.2123 123.179 70.2184 123.177C70.2245 123.176 70.2308 123.177 70.2363 123.18C70.2419 123.183 70.2462 123.188 70.2486 123.193C70.25 123.197 70.2507 123.2 70.2507 123.204C70.2507 123.207 70.25 123.211 70.2486 123.214ZM70.3246 123.25C70.3193 123.25 70.314 123.249 70.3096 123.246C70.3052 123.243 70.3017 123.239 70.2997 123.234C70.2976 123.229 70.2971 123.223 70.2981 123.218C70.2992 123.213 70.3017 123.208 70.3055 123.204C70.3093 123.2 70.3141 123.198 70.3193 123.197C70.3246 123.196 70.33 123.196 70.3349 123.198C70.3399 123.2 70.3441 123.204 70.3471 123.208C70.35 123.213 70.3516 123.218 70.3516 123.223C70.3516 123.23 70.3488 123.237 70.3437 123.242C70.3386 123.247 70.3318 123.25 70.3246 123.25ZM70.4456 123.226C70.4407 123.228 70.4353 123.229 70.4301 123.227C70.4249 123.226 70.4202 123.224 70.4165 123.22C70.4128 123.216 70.4103 123.211 70.4093 123.206C70.4084 123.201 70.4089 123.196 70.4109 123.191C70.413 123.186 70.4164 123.182 70.4208 123.179C70.4252 123.176 70.4303 123.174 70.4356 123.174C70.4409 123.174 70.4461 123.176 70.4505 123.178C70.455 123.181 70.4585 123.185 70.4606 123.19C70.4621 123.194 70.4628 123.197 70.4629 123.201C70.4629 123.205 70.4622 123.208 70.4608 123.211C70.4594 123.215 70.4573 123.218 70.4547 123.22C70.4521 123.223 70.449 123.225 70.4456 123.226ZM70.3246 123.164C70.2791 123.164 70.2346 123.151 70.1968 123.126C70.159 123.1 70.1295 123.064 70.1121 123.022C70.0947 122.98 70.0902 122.934 70.099 122.889C70.1079 122.845 70.1298 122.804 70.162 122.772C70.1941 122.739 70.2351 122.718 70.2797 122.709C70.3244 122.7 70.3706 122.704 70.4126 122.722C70.4547 122.739 70.4906 122.769 70.5158 122.807C70.5411 122.844 70.5546 122.889 70.5546 122.934C70.5546 122.995 70.5304 123.054 70.4872 123.097C70.4441 123.14 70.3856 123.164 70.3246 123.164ZM70.5476 123.157C70.5438 123.161 70.539 123.164 70.5338 123.165C70.5285 123.166 70.5231 123.165 70.5182 123.163C70.5132 123.161 70.509 123.158 70.506 123.153C70.503 123.149 70.5014 123.144 70.5014 123.138C70.5014 123.133 70.503 123.128 70.506 123.123C70.509 123.119 70.5132 123.115 70.5182 123.113C70.5231 123.111 70.5285 123.111 70.5338 123.112C70.539 123.113 70.5438 123.115 70.5476 123.119C70.5526 123.124 70.5554 123.131 70.5554 123.138C70.5554 123.145 70.5526 123.152 70.5476 123.157ZM70.5476 122.748C70.5432 122.753 70.5373 122.755 70.5311 122.756C70.5249 122.757 70.5187 122.755 70.5135 122.751C70.5083 122.748 70.5045 122.743 70.5027 122.737C70.501 122.731 70.5013 122.724 70.5037 122.719C70.5061 122.713 70.5105 122.708 70.516 122.705C70.5216 122.702 70.5279 122.701 70.534 122.703C70.5402 122.704 70.5457 122.707 70.5496 122.712C70.5535 122.717 70.5556 122.723 70.5556 122.729C70.5556 122.736 70.5527 122.743 70.5476 122.748ZM70.5806 122.797C70.5864 122.795 70.5928 122.795 70.5987 122.797C70.6046 122.798 70.6098 122.802 70.6132 122.807C70.6166 122.813 70.6181 122.819 70.6175 122.825C70.6169 122.831 70.6142 122.837 70.6098 122.841C70.6054 122.846 70.5996 122.849 70.5934 122.849C70.5872 122.85 70.581 122.848 70.5758 122.845C70.5706 122.841 70.5668 122.836 70.5649 122.83C70.563 122.824 70.5633 122.818 70.5656 122.812C70.567 122.809 70.569 122.806 70.5716 122.803C70.5742 122.801 70.5772 122.799 70.5806 122.797ZM70.6206 123.044C70.6182 123.05 70.614 123.054 70.6087 123.057C70.6034 123.06 70.5973 123.06 70.5915 123.059C70.5856 123.058 70.5804 123.055 70.5766 123.05C70.5729 123.046 70.5708 123.04 70.5708 123.034C70.5708 123.028 70.5729 123.022 70.5766 123.017C70.5804 123.013 70.5856 123.01 70.5915 123.008C70.5973 123.007 70.6034 123.008 70.6087 123.011C70.614 123.013 70.6182 123.018 70.6206 123.023C70.622 123.027 70.6227 123.03 70.6227 123.034C70.6227 123.037 70.622 123.041 70.6206 123.044ZM70.6136 122.961C70.6083 122.961 70.603 122.96 70.5986 122.957C70.5942 122.954 70.5907 122.95 70.5887 122.945C70.5866 122.94 70.5861 122.934 70.5871 122.929C70.5882 122.924 70.5907 122.919 70.5945 122.915C70.5983 122.911 70.6031 122.909 70.6083 122.908C70.6136 122.907 70.619 122.907 70.6239 122.909C70.6289 122.911 70.6331 122.915 70.6361 122.919C70.639 122.924 70.6406 122.929 70.6406 122.934C70.6406 122.941 70.6378 122.948 70.6327 122.953C70.6276 122.958 70.6208 122.961 70.6136 122.961Z" fill="#F4B869"/>
<path d="M175.271 65.0018C171.01 68.3551 166.743 71.7198 162.471 75.0958C161.486 74.7198 160.954 74.3148 160.877 73.8808C160.868 73.8381 160.863 73.7944 160.864 73.7508C160.864 73.3414 161.231 72.8488 161.964 72.2728C165.793 69.2294 169.65 66.2134 173.535 63.2248C174.343 62.6161 175.156 62.0184 175.975 61.4318C176.661 60.9451 177.342 60.4524 178.017 59.9538C178.333 59.6949 178.634 59.4177 178.917 59.1238C179.05 58.9798 179.189 58.8358 179.332 58.6918L179.448 58.5758C179.489 58.5131 179.539 58.4571 179.597 58.4098C179.643 58.3693 179.702 58.346 179.763 58.3438C180.065 58.3378 180.362 58.2582 180.626 58.1118C180.879 57.9682 181.119 57.8008 181.34 57.6118C181.484 57.5011 181.628 57.3961 181.772 57.2968C186.885 53.8434 192.152 50.6504 197.572 47.7178C200.373 46.1688 203.349 44.9603 206.437 44.1178C206.796 44.0205 207.165 43.9704 207.537 43.9688C208.402 43.9736 209.237 44.2854 209.894 44.8488C210.289 45.114 210.605 45.4813 210.807 45.9118C210.854 46.0508 210.876 46.197 210.873 46.3438C210.862 46.656 210.8 46.9643 210.69 47.2568C210.408 48.174 210.029 49.0589 209.561 49.8968C209.107 50.6494 208.664 51.3964 208.233 52.1378C206.706 54.7938 205.09 57.3938 203.385 59.9378C195.843 70.9842 187.722 81.6244 179.056 91.8138C177.042 94.1158 174.95 96.3514 172.781 98.5208L171.038 100.297C169.745 101.682 168.187 102.795 166.456 103.568C165.799 103.878 165.089 104.064 164.364 104.116C164.264 104.127 164.164 104.133 164.064 104.133C163.425 104.126 162.796 103.978 162.221 103.701C161.568 103.442 161.008 102.994 160.611 102.414C160.215 101.834 160.001 101.149 159.997 100.447V100.115C159.996 98.8834 160.113 97.6549 160.346 96.4458C160.729 94.6345 161.259 92.8576 161.931 91.1328C162.598 89.4174 163.353 87.7298 164.197 86.0698C167.55 79.2631 171.164 72.5894 175.038 66.0488C175.149 65.8714 175.249 65.6944 175.338 65.5178C175.393 65.4291 175.443 65.3461 175.487 65.2688L175.354 65.1028C175.323 65.0719 175.295 65.0381 175.271 65.0018ZM209.254 45.8808C209.22 45.847 209.181 45.819 209.138 45.7978C209.091 45.7507 209.041 45.7063 208.989 45.6648C208.779 45.7201 208.569 45.7698 208.358 45.8138C207.894 45.9021 207.439 46.0299 206.997 46.1958C206.344 46.4724 205.68 46.7434 205.005 47.0088C203.119 47.7141 201.278 48.5346 199.493 49.4658C193.374 52.7286 187.469 56.3763 181.812 60.3868C181.439 60.6606 181.119 60.9994 180.866 61.3868C177.855 66.4008 174.939 71.4724 172.117 76.6018C169.295 81.7311 166.661 86.9574 164.214 92.2808C163.307 94.3474 162.499 96.4557 161.79 98.6058C161.769 98.6481 161.752 98.6927 161.74 98.7388C161.508 99.3658 161.39 100.029 161.391 100.698C161.392 101.116 161.437 101.533 161.524 101.943C161.589 102.425 161.817 102.871 162.171 103.205C162.468 103.398 162.818 103.491 163.171 103.471C163.293 103.471 163.42 103.465 163.553 103.454C164.942 103.292 166.258 102.746 167.353 101.877C168.699 100.906 169.965 99.8292 171.138 98.6558C171.393 98.3791 171.653 98.1024 171.918 97.8258C174.972 94.6591 177.932 91.4108 180.799 88.0808C183.478 84.8808 186.076 81.6141 188.593 78.2808C191.11 74.9474 193.603 71.5994 196.072 68.2368C196.393 67.7941 196.719 67.3514 197.051 66.9088C198.567 64.8614 200.053 62.7948 201.509 60.7088C202.965 58.6228 204.324 56.4728 205.585 54.2588C206.614 52.4108 207.566 50.5238 208.44 48.5978C208.696 47.9976 208.897 47.3754 209.04 46.7388C209.105 46.4521 209.177 46.1661 209.254 45.8808ZM217.246 68.1598C217.856 68.8601 218.197 69.7542 218.209 70.6828C218.201 71.2304 218.089 71.7715 217.877 72.2768C216.75 74.966 215.031 77.3662 212.847 79.2988C211.579 80.4893 210.141 81.4842 208.58 82.2508C207.465 82.78 206.245 83.0534 205.011 83.0508H204.944C204.486 83.075 204.031 82.9551 203.644 82.708C203.257 82.4609 202.957 82.0989 202.786 81.6728C202.731 81.5394 202.664 81.3954 202.586 81.2408L202.453 80.9748C200.798 82.9447 199.293 85.037 197.953 87.2338C196.627 89.4124 195.355 91.6141 194.137 93.8388L193.29 95.3748C192.781 96.2988 192.183 97.3988 191.497 98.6748C190.811 99.9508 190.167 101.167 189.564 102.323C188.964 103.474 188.541 104.326 188.294 104.88C188.286 104.898 188.275 104.915 188.261 104.93C188.247 104.944 188.23 104.955 188.211 104.963H188.178C188.163 104.963 188.147 104.96 188.133 104.955C188.119 104.949 188.106 104.941 188.095 104.93C187.906 104.765 187.726 104.59 187.555 104.407C187.342 104.183 187.155 103.935 186.999 103.668C186.904 103.495 186.853 103.301 186.85 103.104C186.85 103.037 186.856 102.97 186.867 102.904C187.084 102.391 187.328 101.891 187.597 101.404C187.997 100.646 188.44 99.8211 188.925 98.9298C189.41 98.0384 189.842 97.2608 190.22 96.5968L190.784 95.5968C191.238 94.7334 191.708 93.8758 192.195 93.0238C194.308 89.3391 196.427 85.6484 198.553 81.9518L205.492 69.8658C205.857 69.2351 206.206 68.5988 206.538 67.9568C206.704 67.6581 206.864 67.3581 207.019 67.0568C207.353 67.1859 207.643 67.4075 207.856 67.6957C208.068 67.9838 208.194 68.3266 208.219 68.6838C208.208 69.0372 208.117 69.3835 207.953 69.6968C207.178 71.1248 206.381 72.5471 205.562 73.9638C205.219 74.5724 204.876 75.1868 204.533 75.8068C204.313 76.1512 204.161 76.5344 204.085 76.9358L204.285 76.7358C204.429 76.5918 204.567 76.4478 204.7 76.3038C206.753 73.885 209.026 71.6618 211.49 69.6628C212.274 69.0441 213.095 68.4731 213.947 67.9528C214.375 67.6996 214.84 67.5147 215.325 67.4048C215.478 67.3728 215.634 67.3561 215.79 67.3548C216.08 67.3594 216.364 67.435 216.618 67.5748C216.872 67.7146 217.087 67.9144 217.246 68.1568V68.1598ZM216.499 70.6338C216.588 70.3791 216.671 70.1081 216.748 69.8208C216.781 69.6768 216.82 69.5274 216.864 69.3728C216.731 69.3841 216.609 69.3951 216.499 69.4058C216.311 69.4278 216.151 69.4498 216.018 69.4718C214.157 69.9034 212.415 70.7426 210.918 71.9288C209.16 73.2552 207.541 74.7569 206.087 76.4108C205.279 77.3514 204.46 78.3307 203.63 79.3488C203.23 79.8248 202.82 80.3118 202.401 80.8098C202.622 80.8538 202.81 80.8871 202.965 80.9098C203.217 80.9682 203.472 81.0126 203.729 81.0428C203.873 81.0541 204.017 81.0598 204.161 81.0598C205.395 81.061 206.609 80.7404 207.681 80.1298C209.859 78.9562 211.802 77.3903 213.411 75.5108C214.691 74.0564 215.733 72.4091 216.499 70.6298V70.6338ZM236.843 68.1598C237.453 68.8601 237.794 69.7542 237.806 70.6828C237.798 71.2304 237.686 71.7715 237.474 72.2768C236.347 74.966 234.628 77.3662 232.444 79.2988C231.176 80.4893 229.738 81.4842 228.177 82.2508C227.062 82.78 225.842 83.0534 224.608 83.0508H224.542C224.084 83.075 223.629 82.9551 223.242 82.708C222.855 82.4609 222.555 82.0989 222.384 81.6728C222.329 81.5394 222.262 81.3954 222.184 81.2408L222.051 80.9748C220.396 82.9447 218.891 85.037 217.551 87.2338C216.226 89.4124 214.954 91.6141 213.733 93.8388L212.886 95.3748C212.377 96.2988 211.779 97.3988 211.093 98.6748C210.407 99.9508 209.764 101.167 209.164 102.323C208.564 103.474 208.141 104.326 207.894 104.88C207.886 104.898 207.875 104.915 207.861 104.93C207.847 104.944 207.83 104.955 207.811 104.963H207.778C207.763 104.963 207.747 104.96 207.733 104.955C207.719 104.949 207.706 104.941 207.695 104.93C207.506 104.765 207.326 104.59 207.155 104.407C206.942 104.183 206.755 103.935 206.599 103.668C206.504 103.495 206.453 103.301 206.45 103.104C206.45 103.037 206.456 102.97 206.467 102.904C206.684 102.391 206.928 101.891 207.197 101.404C207.597 100.646 208.04 99.8211 208.525 98.9298C209.01 98.0384 209.442 97.2608 209.82 96.5968L210.384 95.5968C210.838 94.7334 211.308 93.8758 211.795 93.0238C213.908 89.3391 216.026 85.6484 218.149 81.9518L225.088 69.8658C225.453 69.2351 225.802 68.5988 226.134 67.9568C226.3 67.6581 226.46 67.3581 226.615 67.0568C226.949 67.1859 227.239 67.4075 227.452 67.6957C227.664 67.9838 227.79 68.3266 227.815 68.6838C227.804 69.0372 227.713 69.3835 227.549 69.6968C226.774 71.1248 225.977 72.5471 225.158 73.9638C224.815 74.5724 224.472 75.1868 224.129 75.8068C223.909 76.1512 223.757 76.5344 223.681 76.9358L223.881 76.7358C224.025 76.5918 224.163 76.4478 224.296 76.3038C226.349 73.885 228.622 71.6618 231.086 69.6628C231.87 69.0441 232.691 68.4731 233.543 67.9528C233.971 67.6996 234.436 67.5147 234.921 67.4048C235.074 67.3728 235.23 67.3561 235.386 67.3548C235.676 67.3593 235.96 67.4347 236.214 67.5745C236.468 67.7144 236.684 67.9142 236.843 68.1568V68.1598ZM236.096 70.6338C236.185 70.3791 236.268 70.1081 236.345 69.8208C236.378 69.6768 236.417 69.5274 236.461 69.3728C236.328 69.3841 236.206 69.3951 236.096 69.4058C235.908 69.4278 235.748 69.4498 235.615 69.4718C233.754 69.9034 232.012 70.7426 230.515 71.9288C228.757 73.2552 227.138 74.7569 225.684 76.4108C224.877 77.3494 224.059 78.3278 223.229 79.3458C222.829 79.8218 222.419 80.3088 222 80.8068C222.221 80.8507 222.409 80.8841 222.564 80.9068C222.816 80.9652 223.071 81.0096 223.328 81.0398C223.472 81.0511 223.616 81.0568 223.76 81.0568C224.994 81.058 226.208 80.7374 227.28 80.1268C229.457 78.9539 231.399 77.389 233.008 75.5108C234.287 74.0563 235.329 72.409 236.095 70.6298L236.096 70.6338ZM244.437 58.7968H247.807V66.8158L246.993 77.3698H245.299L244.436 66.8108L244.437 58.7968ZM244.437 79.7318H247.737V83.1808H244.437V79.7318Z" fill="#C92027"/>
<path d="M49.4781 86.946H50.0721V86.161H49.3231V81.593H50.1361V81.082H46.9181V74.798H51.7281V74.129H49.1701C52.5048 74.1288 55.7747 73.2087 58.6201 71.47L61.2841 69.842V68.142C61.2841 68.142 50.7931 72.553 47.1461 63.307H47.6551V62.633H47.1181V58.813H47.7791V58.303H43.8361V53.803H47.5761V53.283H45.5931C48.1886 53.2831 50.7337 52.5667 52.9481 51.213L55.0191 49.947V48.622C55.0191 48.622 46.8501 52.056 44.0111 44.86H44.4111V44.338C43.4934 44.3389 42.5973 44.0592 41.843 43.5364C41.0887 43.0136 40.5123 42.2727 40.1911 41.413L37.3301 33.764H38.3841V32.374H36.4491C36.0691 32.374 35.7046 32.223 35.4358 31.9543C35.1671 31.6855 35.0161 31.321 35.0161 30.941V29.095C35.0161 28.7149 35.1671 28.3504 35.4358 28.0817C35.7046 27.8129 36.0691 27.662 36.4491 27.662V26.13H33.7781V23.264C34.0373 23.264 34.2858 23.161 34.469 22.9778C34.6522 22.7946 34.7551 22.5461 34.7551 22.287C34.7551 22.0279 34.6522 21.7793 34.469 21.5961C34.2858 21.4129 34.0373 21.31 33.7781 21.31L33.3071 16.468C33.3071 16.3884 33.2755 16.3121 33.2193 16.2558C33.163 16.1996 33.0867 16.168 33.0071 16.168C32.9276 16.168 32.8513 16.1996 32.795 16.2558C32.7387 16.3121 32.7071 16.3884 32.7071 16.468L32.2481 21.307C31.9938 21.3151 31.7525 21.4219 31.5755 21.6047C31.3984 21.7875 31.2994 22.032 31.2994 22.2865C31.2994 22.541 31.3984 22.7855 31.5755 22.9683C31.7525 23.1511 31.9938 23.2578 32.2481 23.266V26.13H29.5481V27.662H29.7931C29.9812 27.662 30.1675 27.699 30.3412 27.7711C30.515 27.8431 30.6728 27.9487 30.8057 28.0818C30.9386 28.2149 31.044 28.3729 31.1158 28.5467C31.1876 28.7206 31.2244 28.9069 31.2241 29.095V30.942C31.2244 31.1301 31.1876 31.3164 31.1158 31.4902C31.044 31.6641 30.9386 31.822 30.8057 31.9551C30.6728 32.0882 30.515 32.1938 30.3412 32.2659C30.1675 32.3379 29.9812 32.375 29.7931 32.375H27.6221V33.765H28.8901L26.0291 41.413C25.7081 42.2717 25.1324 43.0118 24.3791 43.5344C23.6258 44.057 22.7309 44.337 21.8141 44.337H21.5991V44.859H21.9991C19.1561 52.059 10.9911 48.621 10.9911 48.621V49.948L13.0591 51.213C15.2735 52.5671 17.8186 53.2838 20.4141 53.284H18.4241V53.804H22.1681V58.304H18.4361V58.813H18.8681V62.633H18.3531V63.302H18.8621C15.2081 72.549 4.72413 68.137 4.72413 68.137V69.837L7.39513 71.464C10.2408 73.2032 13.5111 74.1236 16.8461 74.124H14.2721V74.793H19.0821V81.077H16.0821V81.588H16.6221V86.163H15.9221V86.948H16.5161C12.2611 97.726 0.0361328 92.581 0.0361328 92.581V94.568L3.13613 96.468C6.45334 98.4929 10.2647 99.5638 14.1511 99.563H11.1691V100.348H12.5031V130.148H11.9961V131.626H11.2591V135H17.3311V131.626H16.5941V130.148H16.0831V108.289H18.7301V109.398H21.0171V130.145H20.5051V131.623H19.7681V134.997H25.8361V131.623H25.1041V130.145H24.5931V109.398H41.4071V130.145H40.8951V131.623H40.1601V134.997H46.2221V131.623H45.4851V130.145H44.9731V109.398H47.2601V108.289H49.9121V130.146H49.4011V131.624H48.6641V134.998H54.7361V131.624H53.9991V130.146H53.4881V100.343H54.8221V99.558H51.8361C55.7246 99.5624 59.5389 98.4939 62.8591 96.47L65.9591 94.57V92.581C65.9591 92.581 53.7361 97.726 49.4781 86.946ZM39.3361 53.806H41.9471V58.306H39.3361V53.806ZM28.5621 53.806H37.4361V58.306H28.5581L28.5621 53.806ZM24.0621 53.806H26.6731V58.306H24.0571L24.0621 53.806ZM19.3771 58.813H22.1671V60.053H21.8971V60.838H21.5071V62.621H24.7161V60.836H24.3261V60.051H24.0561V58.813H26.6671V60.053H26.3971V60.838H26.0071V62.621H29.2161V60.836H28.8261V60.051H28.5561V58.813H37.4361V60.053H37.1671V60.838H36.7771V62.621H39.9861V60.836H39.5961V60.051H39.3361V58.813H41.9471V60.053H41.6661V60.838H41.2761V62.621H44.4931V60.836H44.1031V60.051H43.8361V58.813H46.6091V62.633H19.3771V58.813ZM44.4951 74.798V81.082H41.1361V74.798H44.4951ZM38.7111 74.798V81.082H27.2931V74.798H38.7111ZM24.8651 74.798V81.082H21.5111V74.798H24.8651ZM16.0831 100.343H17.5601V101.391H16.0831V100.343ZM18.7301 107.78H16.0831V104.456H18.7301V107.78ZM21.0171 102.91H18.7301V103.95H16.0831V102.175H21.0221L21.0171 102.91ZM18.0661 101.396V100.348H19.2581V101.396H18.0661ZM21.0181 101.396H19.7701V100.348H21.0171L21.0181 101.396ZM41.4021 102.913H24.5931V102.178H41.4021V102.913ZM24.5931 101.396V100.348H25.5611V101.396H24.5931ZM26.0711 101.396V100.348H27.2631V101.396H26.0711ZM27.7711 101.396V100.348H28.9661V101.396H27.7711ZM29.4711 101.396V100.348H30.6631V101.396H29.4711ZM31.1711 101.396V100.348H32.3631V101.396H31.1711ZM32.8711 101.396V100.348H34.0631V101.396H32.8711ZM34.5711 101.396V100.348H35.7631V101.396H34.5711ZM36.2711 101.396V100.348H37.4631V101.396H36.2711ZM37.9711 101.396V100.348H39.1621V101.396H37.9711ZM39.6711 101.396V100.348H40.8621V101.396H39.6711ZM17.1361 86.167V81.593H19.0841V82.825H18.7321V83.83H18.2321V86.122H22.3561V83.83H21.8561V82.824H21.5141V81.593H24.8681V82.825H24.5211V83.83H24.0211V86.122H28.1451V83.83H27.6451V82.824H27.2981V81.593H38.7061V82.825H38.3671V83.83H37.8671V86.122H41.9811V83.83H41.4811V82.824H41.1361V81.593H44.4961V82.825H44.1491V83.83H43.6491V86.122H47.7731V83.83H47.2731V82.824H46.9261V81.593H48.8211V86.168L17.1361 86.167ZM47.8741 100.343V101.391H46.6821V100.343H47.8741ZM46.1741 100.343V101.391H44.9781V100.343H46.1741ZM49.9191 107.78H47.2651V104.456H49.9171L49.9191 107.78ZM49.9191 103.948H47.2651V102.913H44.9781V102.178H49.9171L49.9191 103.948ZM49.9191 101.394H48.3861V100.347H49.9161L49.9191 101.394Z" fill="#E5E5E5"/>
<path d="M257.964 104.958C257.964 103.938 257.709 102.935 257.224 102.038C256.739 101.141 256.038 100.379 255.185 99.8204C254.331 99.2622 253.352 98.9255 252.336 98.8406C251.319 98.7557 250.298 98.9254 249.364 99.3342C249.364 99.1632 249.387 98.9922 249.387 98.8192C249.387 98.0129 249.228 97.2146 248.919 96.4697C248.611 95.7248 248.158 95.048 247.588 94.4779C247.018 93.9078 246.341 93.4556 245.597 93.147C244.852 92.8385 244.053 92.6797 243.247 92.6797C242.441 92.6797 241.642 92.8385 240.898 93.147C240.153 93.4556 239.476 93.9078 238.906 94.4779C238.336 95.048 237.883 95.7248 237.575 96.4697C237.266 97.2146 237.108 98.0129 237.108 98.8192C237.104 98.9912 237.112 99.1632 237.131 99.3342C236.349 98.9916 235.504 98.8158 234.651 98.8179C233.797 98.8201 232.954 99.0002 232.174 99.3467C231.394 99.6932 230.695 100.199 230.121 100.831C229.547 101.462 229.112 102.207 228.842 103.017C228.572 103.827 228.474 104.684 228.554 105.533C228.635 106.383 228.891 107.207 229.307 107.952C229.724 108.697 230.291 109.347 230.973 109.86C231.654 110.374 232.436 110.74 233.267 110.934C232.725 111.584 232.324 112.339 232.088 113.152C231.853 113.964 231.787 114.816 231.896 115.655C232.006 116.494 232.287 117.301 232.723 118.026C233.159 118.751 233.74 119.378 234.43 119.868C235.119 120.358 235.903 120.7 236.731 120.872C237.559 121.045 238.414 121.045 239.242 120.871C240.07 120.698 240.853 120.356 241.542 119.865C242.232 119.375 242.812 118.747 243.248 118.022C243.683 118.747 244.264 119.375 244.953 119.865C245.642 120.356 246.425 120.698 247.253 120.871C248.081 121.045 248.936 121.045 249.764 120.872C250.592 120.7 251.376 120.358 252.066 119.868C252.755 119.378 253.336 118.751 253.772 118.026C254.208 117.301 254.489 116.494 254.599 115.655C254.708 114.816 254.643 113.964 254.407 113.152C254.171 112.339 253.77 111.584 253.229 110.934C254.576 110.618 255.777 109.856 256.637 108.771C257.496 107.686 257.964 106.342 257.964 104.958ZM251.013 105.152C250.923 105.182 250.825 105.181 250.736 105.148C250.647 105.116 250.572 105.054 250.523 104.973L247.194 106.18C247.254 106.392 247.297 106.608 247.325 106.826L247.895 106.689C247.9 106.573 247.949 106.462 248.03 106.379C248.112 106.296 248.222 106.247 248.339 106.24C248.455 106.233 248.57 106.269 248.661 106.341C248.752 106.414 248.814 106.518 248.833 106.632C248.853 106.747 248.829 106.866 248.767 106.964C248.705 107.063 248.608 107.135 248.496 107.167C248.384 107.199 248.264 107.188 248.159 107.137C248.054 107.085 247.972 106.997 247.929 106.889L247.359 106.989V107.615L250.159 107.478C250.175 107.37 250.23 107.271 250.314 107.199C250.398 107.128 250.504 107.089 250.614 107.09C250.724 107.091 250.83 107.131 250.913 107.203C250.995 107.275 251.049 107.375 251.065 107.484C251.08 107.593 251.056 107.703 250.996 107.796C250.937 107.888 250.846 107.956 250.741 107.987C250.635 108.018 250.522 108.01 250.422 107.965C250.322 107.92 250.242 107.84 250.196 107.74L247.348 107.717C247.305 108.147 247.195 108.567 247.021 108.961L247.502 109.18L247.525 109.154C247.585 109.113 247.658 109.095 247.73 109.103C247.802 109.11 247.87 109.143 247.921 109.195C247.971 109.247 248.002 109.315 248.007 109.388C248.013 109.461 247.993 109.533 247.95 109.592C247.908 109.651 247.846 109.693 247.775 109.711C247.705 109.729 247.63 109.722 247.564 109.691C247.499 109.659 247.446 109.606 247.416 109.539C247.386 109.473 247.38 109.398 247.4 109.328L246.95 109.086C246.885 109.22 246.813 109.348 246.736 109.476L249.736 111.287C249.782 111.26 249.836 111.246 249.89 111.249C249.945 111.251 249.997 111.268 250.042 111.299C250.086 111.33 250.121 111.373 250.142 111.423C250.163 111.473 250.169 111.528 250.16 111.582C250.151 111.635 250.127 111.685 250.09 111.725C250.054 111.765 250.006 111.794 249.954 111.808C249.902 111.823 249.846 111.822 249.795 111.805C249.743 111.789 249.697 111.759 249.662 111.717C249.615 111.657 249.592 111.582 249.599 111.506L246.692 109.547C246.566 109.738 246.425 109.919 246.271 110.088L247.829 111.364C247.919 111.293 248.033 111.259 248.148 111.267C248.263 111.275 248.371 111.325 248.451 111.408C248.531 111.491 248.578 111.6 248.582 111.715C248.586 111.83 248.548 111.943 248.475 112.031C248.401 112.12 248.297 112.178 248.183 112.195C248.069 112.212 247.953 112.186 247.857 112.122C247.761 112.058 247.692 111.962 247.663 111.85C247.634 111.739 247.648 111.62 247.701 111.518L246.201 110.165C246.088 110.284 245.967 110.395 245.839 110.498L248.433 113.274C248.526 113.223 248.634 113.209 248.737 113.233C248.84 113.258 248.931 113.319 248.991 113.406C249.052 113.493 249.078 113.599 249.065 113.704C249.052 113.81 249.001 113.906 248.921 113.976C248.841 114.046 248.738 114.083 248.632 114.082C248.526 114.08 248.425 114.04 248.347 113.968C248.269 113.896 248.22 113.798 248.21 113.692C248.2 113.587 248.23 113.481 248.293 113.396L245.798 110.528C245.632 110.659 245.457 110.778 245.274 110.884L245.741 111.55C245.832 111.519 245.93 111.517 246.022 111.544C246.114 111.571 246.196 111.626 246.256 111.701C246.314 111.773 246.35 111.86 246.359 111.951C246.369 112.043 246.351 112.136 246.308 112.218C246.266 112.299 246.2 112.367 246.12 112.412C246.04 112.457 245.948 112.478 245.856 112.471C245.764 112.465 245.676 112.432 245.602 112.376C245.529 112.32 245.473 112.244 245.443 112.157C245.412 112.07 245.407 111.976 245.429 111.887C245.451 111.797 245.499 111.716 245.567 111.653L245.148 110.953C244.972 111.048 244.789 111.128 244.601 111.192L245.817 113.929C245.923 113.906 246.035 113.922 246.131 113.975C246.227 114.027 246.301 114.112 246.34 114.215C246.378 114.317 246.378 114.43 246.341 114.533C246.303 114.635 246.229 114.721 246.134 114.774C246.038 114.827 245.926 114.844 245.819 114.821C245.712 114.799 245.617 114.739 245.55 114.652C245.484 114.565 245.451 114.457 245.457 114.348C245.464 114.239 245.509 114.136 245.586 114.057L244.512 111.209C243.893 111.413 243.235 111.463 242.593 111.357L242.536 111.827L242.567 111.841C242.619 111.876 242.661 111.925 242.685 111.983C242.71 112.042 242.717 112.106 242.705 112.168C242.693 112.23 242.663 112.287 242.619 112.332C242.575 112.377 242.518 112.408 242.456 112.42C242.394 112.433 242.33 112.427 242.272 112.404C242.213 112.38 242.163 112.339 242.128 112.287C242.092 112.235 242.073 112.173 242.073 112.11C242.072 112.047 242.091 111.985 242.126 111.932C242.152 111.892 242.188 111.858 242.23 111.833C242.272 111.809 242.319 111.795 242.368 111.792L242.459 111.334C242.312 111.306 242.166 111.27 242.023 111.226L241.203 114.603C241.243 114.64 241.272 114.687 241.286 114.739C241.3 114.791 241.299 114.847 241.284 114.898C241.268 114.95 241.237 114.996 241.196 115.031C241.154 115.067 241.104 115.089 241.05 115.097C240.997 115.104 240.942 115.096 240.893 115.074C240.843 115.051 240.801 115.015 240.772 114.969C240.742 114.924 240.727 114.871 240.726 114.817C240.726 114.762 240.741 114.709 240.77 114.663C240.813 114.601 240.878 114.556 240.952 114.538L241.937 111.198C241.719 111.121 241.509 111.026 241.308 110.913L240.565 112.813C240.64 112.866 240.698 112.94 240.731 113.025C240.765 113.111 240.772 113.204 240.753 113.294C240.734 113.383 240.688 113.466 240.622 113.53C240.557 113.594 240.474 113.637 240.383 113.654C240.293 113.671 240.2 113.662 240.115 113.626C240.031 113.59 239.959 113.531 239.908 113.454C239.857 113.378 239.83 113.288 239.829 113.196C239.829 113.105 239.856 113.015 239.907 112.938C239.958 112.863 240.03 112.804 240.114 112.768C240.197 112.733 240.29 112.722 240.38 112.738L241.234 110.884C241.091 110.805 240.955 110.716 240.824 110.619L238.933 113.968C239.005 114.042 239.049 114.14 239.054 114.243C239.059 114.346 239.026 114.448 238.961 114.529C238.896 114.609 238.804 114.663 238.702 114.68C238.599 114.697 238.495 114.675 238.407 114.62C238.32 114.564 238.256 114.478 238.228 114.378C238.2 114.279 238.21 114.172 238.255 114.079C238.301 113.986 238.379 113.913 238.475 113.874C238.571 113.835 238.678 113.833 238.776 113.868L240.769 110.585C240.6 110.46 240.442 110.321 240.296 110.169L239.752 110.878C239.821 110.973 239.853 111.09 239.841 111.207C239.829 111.324 239.775 111.432 239.688 111.511C239.601 111.59 239.488 111.634 239.37 111.635C239.253 111.636 239.139 111.593 239.051 111.515C238.964 111.437 238.908 111.329 238.894 111.213C238.881 111.096 238.911 110.979 238.98 110.883C239.048 110.787 239.149 110.72 239.264 110.695C239.378 110.669 239.498 110.687 239.601 110.744L240.201 110.069C240.069 109.925 239.948 109.77 239.839 109.608L237.495 111.673C237.547 111.768 237.563 111.879 237.541 111.985C237.519 112.091 237.459 112.186 237.373 112.252C237.287 112.318 237.18 112.35 237.071 112.344C236.963 112.338 236.861 112.293 236.783 112.217C236.705 112.142 236.656 112.041 236.647 111.933C236.637 111.825 236.666 111.717 236.729 111.628C236.792 111.54 236.885 111.477 236.99 111.452C237.096 111.426 237.207 111.439 237.304 111.488L239.79 109.537C239.49 109.077 239.286 108.56 239.19 108.019L238.797 108.127C238.798 108.138 238.798 108.15 238.797 108.161C238.783 108.236 238.743 108.304 238.684 108.353C238.624 108.401 238.55 108.427 238.473 108.426C238.397 108.424 238.323 108.395 238.266 108.344C238.209 108.294 238.171 108.224 238.161 108.148C238.15 108.072 238.167 107.995 238.208 107.931C238.249 107.866 238.312 107.818 238.385 107.796C238.458 107.773 238.537 107.778 238.607 107.808C238.678 107.838 238.735 107.893 238.769 107.961L239.169 107.881C239.148 107.732 239.136 107.582 239.132 107.431L235.715 107.949C235.694 108.012 235.653 108.065 235.598 108.101C235.544 108.137 235.478 108.154 235.413 108.148C235.347 108.143 235.286 108.115 235.238 108.07C235.191 108.025 235.159 107.965 235.15 107.9C235.141 107.835 235.154 107.769 235.187 107.712C235.22 107.655 235.271 107.612 235.332 107.588C235.393 107.564 235.46 107.561 235.523 107.58C235.586 107.599 235.64 107.639 235.678 107.693L239.132 107.34V107.309C239.132 107.089 239.15 106.869 239.186 106.651L237.141 106.677C237.116 106.79 237.051 106.889 236.957 106.956C236.864 107.024 236.749 107.054 236.634 107.041C236.52 107.029 236.414 106.975 236.337 106.889C236.26 106.803 236.217 106.692 236.217 106.577C236.217 106.462 236.26 106.351 236.337 106.265C236.414 106.18 236.52 106.125 236.634 106.113C236.749 106.1 236.864 106.131 236.957 106.198C237.051 106.265 237.116 106.365 237.141 106.477L239.203 106.554C239.233 106.393 239.272 106.233 239.32 106.076L235.45 105.603C235.411 105.703 235.338 105.784 235.243 105.833C235.148 105.881 235.038 105.893 234.935 105.865C234.832 105.838 234.743 105.774 234.685 105.684C234.627 105.595 234.603 105.488 234.619 105.382C234.636 105.277 234.69 105.181 234.773 105.114C234.855 105.046 234.96 105.012 235.066 105.016C235.172 105.021 235.273 105.065 235.349 105.14C235.425 105.215 235.471 105.315 235.478 105.421L239.337 106.03C239.402 105.834 239.482 105.644 239.576 105.46L238.619 105.204C238.558 105.305 238.462 105.38 238.349 105.415C238.236 105.45 238.115 105.441 238.008 105.392C237.901 105.342 237.816 105.255 237.769 105.146C237.723 105.038 237.718 104.916 237.756 104.804C237.794 104.692 237.872 104.599 237.975 104.541C238.078 104.483 238.199 104.466 238.314 104.492C238.429 104.518 238.53 104.585 238.599 104.682C238.667 104.778 238.697 104.896 238.684 105.013L239.635 105.346C239.727 105.176 239.831 105.014 239.948 104.859L237.023 103.421C236.972 103.487 236.903 103.537 236.826 103.566C236.748 103.596 236.663 103.602 236.582 103.586C236.497 103.569 236.42 103.528 236.358 103.468C236.296 103.408 236.253 103.331 236.234 103.247C236.215 103.163 236.22 103.076 236.249 102.995C236.278 102.913 236.33 102.843 236.398 102.79C236.466 102.738 236.548 102.706 236.634 102.699C236.72 102.692 236.806 102.709 236.882 102.75C236.958 102.79 237.021 102.851 237.063 102.927C237.105 103.002 237.125 103.087 237.12 103.173L239.995 104.789C240.351 104.33 240.8 103.952 241.313 103.678L241.088 103.086C241.076 103.088 241.065 103.088 241.054 103.086C240.991 103.08 240.931 103.056 240.882 103.016C240.833 102.976 240.797 102.922 240.778 102.862C240.76 102.802 240.76 102.737 240.778 102.676C240.796 102.616 240.832 102.562 240.881 102.522C240.93 102.482 240.989 102.457 241.052 102.451C241.115 102.445 241.178 102.458 241.234 102.488C241.29 102.517 241.335 102.563 241.365 102.619C241.395 102.675 241.407 102.738 241.401 102.801C241.396 102.849 241.38 102.896 241.355 102.937C241.329 102.978 241.294 103.012 241.253 103.037L241.427 103.621C241.559 103.554 241.696 103.496 241.837 103.447L240.983 100.007C240.907 99.9939 240.84 99.9512 240.796 99.8884C240.752 99.8255 240.734 99.7478 240.748 99.6722C240.761 99.5966 240.804 99.5294 240.866 99.4853C240.929 99.4412 241.007 99.4239 241.083 99.4372C241.139 99.4426 241.193 99.4648 241.238 99.5009C241.282 99.5369 241.314 99.5853 241.331 99.6398C241.348 99.6944 241.348 99.7527 241.332 99.8074C241.316 99.8621 241.283 99.9107 241.24 99.9472L241.929 103.418C242.146 103.343 242.37 103.287 242.598 103.25L242.39 101.299C242.276 101.284 242.173 101.228 242.098 101.141C242.024 101.054 241.985 100.942 241.987 100.828C241.99 100.714 242.035 100.605 242.113 100.521C242.192 100.438 242.298 100.387 242.412 100.377C242.526 100.367 242.639 100.4 242.731 100.469C242.822 100.538 242.884 100.638 242.907 100.75C242.929 100.862 242.908 100.978 242.85 101.077C242.791 101.175 242.699 101.248 242.59 101.282L242.698 103.238C242.863 103.216 243.03 103.203 243.198 103.201L243.309 99.5012C243.209 99.4707 243.124 99.4045 243.07 99.3152C243.016 99.226 242.996 99.1199 243.016 99.0173C243.035 98.9147 243.091 98.8229 243.174 98.7593C243.257 98.6958 243.36 98.665 243.464 98.6729C243.568 98.6807 243.666 98.7267 243.738 98.802C243.81 98.8773 243.852 98.9766 243.856 99.0809C243.86 99.1852 243.825 99.2872 243.758 99.3673C243.691 99.4475 243.597 99.5001 243.494 99.5152L243.252 103.186C243.468 103.187 243.684 103.204 243.898 103.237L244.003 102.622C243.897 102.571 243.814 102.482 243.77 102.374C243.726 102.265 243.723 102.144 243.763 102.034C243.803 101.923 243.882 101.831 243.985 101.775C244.088 101.72 244.208 101.704 244.322 101.731C244.436 101.759 244.536 101.827 244.603 101.924C244.669 102.02 244.698 102.138 244.683 102.254C244.668 102.371 244.611 102.478 244.522 102.554C244.434 102.631 244.32 102.672 244.203 102.67L244.052 103.27C244.256 103.31 244.456 103.366 244.652 103.438L245.632 100.875C245.539 100.816 245.47 100.726 245.438 100.621C245.406 100.515 245.413 100.402 245.457 100.301C245.502 100.201 245.581 100.119 245.681 100.072C245.78 100.025 245.894 100.016 246 100.045C246.106 100.074 246.198 100.141 246.259 100.233C246.32 100.324 246.346 100.435 246.332 100.544C246.319 100.653 246.266 100.754 246.185 100.828C246.103 100.902 245.998 100.944 245.888 100.946L244.749 103.475C245.265 103.68 245.734 103.986 246.13 104.375L246.304 104.204C246.298 104.194 246.293 104.184 246.29 104.173C246.27 104.113 246.269 104.049 246.286 103.988C246.303 103.927 246.338 103.873 246.386 103.832C246.434 103.791 246.493 103.765 246.556 103.757C246.619 103.75 246.682 103.761 246.738 103.79C246.795 103.819 246.841 103.864 246.872 103.919C246.902 103.974 246.916 104.038 246.911 104.101C246.906 104.164 246.882 104.224 246.842 104.273C246.803 104.322 246.75 104.359 246.69 104.378C246.642 104.394 246.591 104.399 246.542 104.391C246.492 104.384 246.445 104.365 246.405 104.335L246.226 104.486C246.327 104.596 246.422 104.712 246.511 104.833L249.057 102.865C249.044 102.801 249.053 102.733 249.083 102.675C249.114 102.616 249.163 102.57 249.223 102.542C249.283 102.515 249.35 102.509 249.414 102.525C249.478 102.541 249.535 102.579 249.575 102.631C249.615 102.683 249.636 102.748 249.635 102.813C249.634 102.879 249.61 102.943 249.569 102.994C249.527 103.045 249.469 103.08 249.404 103.094C249.34 103.108 249.273 103.099 249.214 103.07L246.571 104.918C246.709 105.111 246.83 105.316 246.933 105.53L248.439 104.676C248.404 104.566 248.411 104.446 248.459 104.341C248.506 104.235 248.591 104.151 248.698 104.104C248.804 104.057 248.923 104.052 249.033 104.088C249.144 104.124 249.236 104.2 249.294 104.3C249.352 104.401 249.371 104.519 249.346 104.632C249.322 104.746 249.257 104.846 249.163 104.914C249.07 104.983 248.954 105.014 248.839 105.002C248.723 104.99 248.616 104.936 248.539 104.85L246.981 105.639C247.052 105.795 247.111 105.956 247.16 106.12L250.466 104.82C250.456 104.74 250.469 104.66 250.504 104.587C250.539 104.515 250.593 104.453 250.661 104.411C250.729 104.368 250.808 104.346 250.888 104.346C250.969 104.346 251.047 104.369 251.115 104.413C251.183 104.456 251.237 104.518 251.271 104.59C251.305 104.663 251.317 104.744 251.307 104.824C251.297 104.903 251.264 104.979 251.213 105.04C251.162 105.102 251.094 105.148 251.018 105.173L251.013 105.152Z" fill="#C92027"/>
<defs>
<filter id="filter0_d_4234_331955" x="89.7705" y="57" width="11" height="11" filterUnits="userSpaceOnUse" color-interpolation-filters="sRGB">
<feFlood flood-opacity="0" result="BackgroundImageFix"/>
<feColorMatrix in="SourceAlpha" type="matrix" values="0 0 0 0 0 0 0 0 0 0 0 0 0 0 0 0 0 0 127 0" result="hardAlpha"/>
<feOffset/>
<feGaussianBlur stdDeviation="1"/>
<feColorMatrix type="matrix" values="0 0 0 0 1 0 0 0 0 0 0 0 0 0 0 0 0 0 0.502 0"/>
<feBlend mode="normal" in2="BackgroundImageFix" result="effect1_dropShadow_4234_331955"/>
<feBlend mode="normal" in="SourceGraphic" in2="effect1_dropShadow_4234_331955" result="shape"/>
</filter>
<filter id="filter1_d_4234_331955" x="119.771" y="57" width="11" height="11" filterUnits="userSpaceOnUse" color-interpolation-filters="sRGB">
<feFlood flood-opacity="0" result="BackgroundImageFix"/>
<feColorMatrix in="SourceAlpha" type="matrix" values="0 0 0 0 0 0 0 0 0 0 0 0 0 0 0 0 0 0 127 0" result="hardAlpha"/>
<feOffset/>
<feGaussianBlur stdDeviation="1"/>
<feColorMatrix type="matrix" values="0 0 0 0 1 0 0 0 0 0 0 0 0 0 0 0 0 0 0.502 0"/>
<feBlend mode="normal" in2="BackgroundImageFix" result="effect1_dropShadow_4234_331955"/>
<feBlend mode="normal" in="SourceGraphic" in2="effect1_dropShadow_4234_331955" result="shape"/>
</filter>
</defs>
</svg>
