<svg width="32" height="32" viewBox="0 0 32 32" fill="none" xmlns="http://www.w3.org/2000/svg">
<path d="M15.9555 28.5031L7.38672 23.5557V15.6455L15.9555 20.5928V28.5031Z" fill="#E62920"/>
<path d="M15.957 28.5031L24.5259 23.5557V15.6455L15.957 20.5928V28.5031Z" fill="#DB1A12"/>
<path d="M25.5984 13.5144L15.9984 19.0571L6.39844 13.5144L15.9984 7.97168L25.5984 13.5144Z" fill="#FF443B"/>
<path d="M15.9984 21.5439L6.39844 16.0012L6.3985 13.5146L15.9984 19.0574V21.5439Z" fill="#FF2E24"/>
<path d="M16 21.5439L25.6 16.0012V13.5146L16 19.0574V21.5439Z" fill="#F2241B"/>
<path d="M10.2034 25.1824C10.2034 25.023 10.2034 18.6295 10.2034 18.6295L9.23438 17.6395V15.153L18.8345 9.61035L20.9881 10.8538L11.3879 16.3964V18.8829L12.217 19.712V26.345L10.2034 25.1824Z" fill="url(#paint0_linear_10986_216486)"/>
<path d="M22.8628 24.5632C22.8628 24.4038 22.8628 18.0103 22.8628 18.0103L23.8318 17.0203V14.5338L14.2317 8.99121L12.0781 10.2346L21.6782 15.7772V18.2638L20.8492 19.0928V25.7259L22.8628 24.5632Z" fill="url(#paint1_linear_10986_216486)"/>
<path d="M20.1922 4.51809C20.1922 5.21584 19.5489 9.46165 17.4952 9.46165C15.4441 9.46165 17.8169 11.0971 17.8169 11.0971L18.2623 10.9363L18.3291 10.9116L22.6393 9.35777L22.7853 7.12102L22.961 4.40677L22.9684 4.29546C21.4194 3.39977 20.1922 3.8179 20.1922 4.51809ZM19.4895 10.0976C20.5411 9.61265 21.8648 8.7219 22.4907 7.74702C22.4264 9.37759 21.0804 9.9194 19.4895 10.0976Z" fill="#FFEED1"/>
<path d="M23.3155 4.887C23.2215 4.65937 23.0953 4.501 22.9592 4.407C22.4371 4.04081 21.7245 4.6025 21.7245 5.87425C21.7245 6.285 21.6552 6.72043 21.5117 7.15093C21.096 8.40293 20.0543 9.62768 18.263 10.1745C18.2556 10.177 18.2457 10.1794 18.2383 10.1819L18.2878 10.5827L18.3273 10.9118L18.3298 10.9391L18.3843 11.3745C18.3843 11.3745 21.7245 11.9732 23.4763 11.3745C25.2305 10.7757 23.7707 5.98312 23.3155 4.887ZM22.4891 7.74725C22.4248 9.37781 21.0788 9.91962 19.4878 10.0978C20.5393 9.61281 21.8631 8.72212 22.4891 7.74725Z" fill="#FFDDA3"/>
<path d="M22.8203 9.96424C21.8257 10.9589 19.2104 10.9663 18.3295 10.9391C18.3048 10.9391 18.2825 10.9391 18.2603 10.9366C18.1168 10.9317 18.0352 10.9267 18.0352 10.9267L18.2875 10.5828L18.3642 10.4764C18.6388 10.4393 19.0397 10.3057 19.4875 10.0979C21.0785 9.91974 22.4245 9.37786 22.4888 7.7473C22.6224 7.53949 22.7238 7.33161 22.7832 7.1213C22.798 7.06936 22.8104 7.01986 22.8203 6.97036C23.1495 5.29036 24.0253 8.7593 22.8203 9.96424Z" fill="#FFCC73"/>
<path d="M14.9225 9.53889C16.1211 8.34033 18.1467 9.56246 18.3658 10.4755C18.585 11.3886 18.2096 12.813 16.6442 12.813C15.0787 12.813 14.6445 11.8805 14.6445 11.8805L14.9225 9.53889Z" fill="#FFE2B0"/>
<path d="M12.8293 6.80915V6.81165C12.8391 6.94278 12.802 7.13578 12.7328 7.3659C12.6585 7.6084 12.5497 7.8954 12.4161 8.20465C12.2033 8.01659 11.8891 8.58322 11.7183 9.24134C11.7728 9.27597 11.8296 9.30565 11.8866 9.3329C11.7926 9.52097 11.6985 9.70897 11.6045 9.88959C11.085 10.8892 10.5975 11.7305 10.5975 11.7305C10.5926 11.7255 10.5851 11.7206 10.5802 11.7132C10.5356 11.6686 10.4911 11.6216 10.4491 11.5746C8.87296 9.87972 8.69977 7.65534 9.16002 6.24009C9.63509 4.77778 11.7406 2.95922 12.426 3.64709C13.0866 4.30772 12.5893 5.84915 12.7873 6.62859C12.7873 6.62859 12.7898 6.63109 12.7898 6.63353C12.7947 6.66072 12.8021 6.68797 12.812 6.71515C12.817 6.74728 12.8219 6.77697 12.8293 6.80915Z" fill="#FFEED1"/>
<path d="M16.2458 10.4393C15.2116 9.843 14.3605 9.13043 13.7641 8.44256C13.5167 8.1605 13.3138 7.88093 13.1605 7.61368H13.158C12.9897 7.32668 12.8784 7.057 12.8289 6.812C12.8289 6.812 12.8289 6.812 12.8289 6.8095C12.8215 6.77731 12.8165 6.74762 12.8116 6.7155C12.8017 6.68825 12.7943 6.66106 12.7893 6.63387C12.7893 6.63137 12.7868 6.62893 12.7868 6.62893C12.6928 6.41368 12.3786 6.56956 12.0025 6.94562C11.6413 7.30687 11.2206 7.8685 10.8743 8.49943C10.3992 9.37531 10.0701 10.3848 10.2557 11.1692C10.2928 11.3251 10.3571 11.4611 10.4487 11.5749C10.4908 11.6219 10.5353 11.6689 10.5798 11.7135C10.5848 11.7209 10.5922 11.7259 10.5971 11.7308C11.8763 12.8368 16.0034 11.5947 16.2459 11.3522C16.518 11.0801 16.57 10.6274 16.2458 10.4393ZM12.4156 8.20506C12.4181 8.20506 12.4231 8.21 12.4255 8.2125C12.6235 8.41043 13.0317 9.06612 13.6849 9.66987C13.2321 9.69706 12.5467 9.66493 11.8861 9.33337C11.8291 9.30612 11.7723 9.27643 11.7178 9.24181C11.8886 8.58362 12.2029 8.017 12.4156 8.20506Z" fill="#FFDDA3"/>
<path d="M11.6429 10.513C11.5934 10.3422 11.5835 10.122 11.6033 9.88946C11.6206 9.67915 11.6603 9.45402 11.7171 9.24121C11.7716 9.27584 11.8285 9.30552 11.8854 9.33277C12.546 9.66434 13.2314 9.69646 13.6842 9.66927C14.2013 10.1443 14.8694 10.5848 15.7081 10.7431C16.9848 10.983 12.118 12.1583 11.6429 10.513Z" fill="#FFCC73"/>
<defs>
<linearGradient id="paint0_linear_10986_216486" x1="12.3266" y1="18.7714" x2="11.6839" y2="20.1028" gradientUnits="userSpaceOnUse">
<stop stop-color="#FFDB9C"/>
<stop offset="0.6119" stop-color="#E8BA67"/>
<stop offset="1" stop-color="#F7CD83"/>
</linearGradient>
<linearGradient id="paint1_linear_10986_216486" x1="20.0026" y1="16.5929" x2="23.9897" y2="22.6248" gradientUnits="userSpaceOnUse">
<stop stop-color="#FFDB9C"/>
<stop offset="0.0902" stop-color="#E8BA67"/>
<stop offset="0.2173" stop-color="#E6B866"/>
<stop offset="0.2922" stop-color="#DDB262"/>
<stop offset="0.3471" stop-color="#D1A85D"/>
<stop offset="0.4527" stop-color="#E5B866"/>
</linearGradient>
</defs>
</svg>
