<svg width="21" height="18" viewBox="0 0 21 18" fill="none" xmlns="http://www.w3.org/2000/svg">
<path d="M9.40243 0.224088L6.60992 1.27128C6.30215 1.38669 6.18756 1.76259 6.37862 2.03006L9.86925 6.91696C10.1697 7.33765 10.8331 7.08137 10.7727 6.56792L10.0746 0.633832C10.0366 0.311454 9.70637 0.110113 9.40243 0.224088Z" fill="#FFAD2C"/>
<path d="M0.38014 7.19345L2.70763 3.4797C2.87578 3.2114 3.24782 3.16498 3.47674 3.38375L9.12921 8.78556C9.4932 9.13341 9.17286 9.74041 8.68028 9.63621L0.700331 7.94815C0.360322 7.87622 0.195583 7.48793 0.38014 7.19345Z" fill="#FFAD2C"/>
<g clip-path="url(#clip0_5575_350351)">
<path d="M19.1666 2H13.6248C13.2582 2 12.7459 2.21238 12.4868 2.47121L4.88909 10.0689C4.3703 10.5871 4.3703 11.4367 4.88909 11.9543L10.5462 17.6113C11.0638 18.1295 11.9126 18.1295 12.431 17.6107L20.0288 10.0141C20.2876 9.75533 20.5 9.24213 20.5 8.87632V3.33339C20.5 2.60019 19.8998 2 19.1666 2ZM16.4998 7.33336C15.7634 7.33336 15.1664 6.73575 15.1664 5.99997C15.1664 5.26298 15.7634 4.66658 16.4998 4.66658C17.2362 4.66658 17.8334 5.26298 17.8334 5.99997C17.8334 6.73575 17.2362 7.33336 16.4998 7.33336Z" fill="white"/>
<path d="M14.2158 13.7549C14.2026 13.8552 14.1907 13.9459 14.1786 14.0366C14.1475 14.266 14.1165 14.4955 14.0854 14.725C14.0631 14.8908 14.0423 15.0569 14.0182 15.2225C14.016 15.237 13.9951 15.2532 13.9792 15.2603C13.9403 15.2776 13.8972 15.2863 13.8593 15.3053C13.7376 15.366 13.7027 15.497 13.7748 15.6133C13.8445 15.7259 13.948 15.7719 14.0542 15.7374C14.2116 15.6864 14.2649 15.4949 14.1587 15.362C14.1287 15.3243 14.0979 15.2869 14.0594 15.2401L14.6065 13.8455C14.6415 13.9351 14.6726 14.0131 14.7026 14.0916C14.8281 14.4203 14.9593 14.7472 15.0768 15.0785C15.1825 15.3796 15.2464 15.6936 15.2667 16.0118C15.2928 16.4053 15.1632 16.7413 14.8957 17.0309C14.6596 17.2865 14.2275 17.6444 13.9231 17.8225C13.8677 17.7055 13.8129 17.5888 13.7574 17.4724C13.702 17.356 13.6453 17.238 13.586 17.1143L13.2722 17.3457L12.95 17.5831C12.8982 17.4982 12.8462 17.4182 12.7992 17.3353C12.6421 17.0564 12.5072 16.7696 12.4344 16.4556C12.359 16.1286 12.4031 15.82 12.5571 15.5243C12.7464 15.1609 13.0082 14.8525 13.2928 14.5617C13.5672 14.2813 13.8651 14.027 14.1735 13.7845C14.1845 13.7763 14.1961 13.7688 14.2158 13.7549Z" fill="#FFAD2C"/>
<path d="M10.0646 14.2479L10.6186 13.6971L9.95703 13.256C10.0674 13.1286 10.1724 12.9997 10.2851 12.8788C10.491 12.6588 10.7136 12.4573 10.9864 12.321C11.2009 12.2117 11.4425 12.1663 11.6822 12.1903C12.0983 12.2299 12.4847 12.3685 12.8629 12.5358C13.2475 12.7059 13.612 12.9127 13.9684 13.1346C13.9773 13.141 13.9858 13.1479 13.994 13.1553L12.5202 13.4689C12.4845 13.426 12.4523 13.3813 12.4133 13.3432C12.3266 13.2586 12.2149 13.2585 12.1242 13.3383C12.0189 13.431 11.9976 13.5777 12.0754 13.6729C12.0976 13.7003 12.1258 13.7224 12.1579 13.7374C12.1899 13.7524 12.225 13.7599 12.2604 13.7594C12.2958 13.7589 12.3306 13.7504 12.3622 13.7345C12.3938 13.7186 12.4214 13.6957 12.4428 13.6676C12.4591 13.6462 12.4779 13.6237 12.4834 13.5991C12.5017 13.516 12.5521 13.5075 12.6292 13.5101C13.0945 13.5264 13.56 13.5362 14.0255 13.5483C14.0267 13.5483 14.0278 13.5504 14.0345 13.5565C13.9841 13.6006 13.9348 13.6445 13.8846 13.6877C13.6282 13.9078 13.3762 14.1336 13.1138 14.3463C12.8034 14.598 12.469 14.8123 12.0867 14.9449C11.7614 15.0579 11.4477 15.02 11.1365 14.8913C10.7535 14.7334 10.4103 14.5097 10.0799 14.2645C10.0743 14.2595 10.0692 14.2539 10.0646 14.2479Z" fill="#FFAD2C"/>
<path d="M12.3016 9.39187L13.0009 9.75425L13.2223 9C13.5942 9.1357 13.9451 9.29908 14.2574 9.53755C14.458 9.69074 14.6105 9.87997 14.7038 10.1144C14.7639 10.2691 14.7989 10.4323 14.8075 10.598C14.8183 10.7774 14.8278 10.9584 14.817 11.1374C14.8023 11.3825 14.7802 11.6283 14.7388 11.87C14.6882 12.1656 14.6145 12.4572 14.5506 12.7506C14.5475 12.7644 14.5425 12.7777 14.5353 12.8013L13.7882 11.4903C13.8088 11.4628 13.8313 11.435 13.8512 11.4061C13.9805 11.2219 13.8589 11.0583 13.6697 11.0389C13.5144 11.023 13.4399 11.1294 13.4232 11.2256C13.4008 11.3538 13.4986 11.4876 13.6332 11.4931C13.7421 11.4976 13.7698 11.5485 13.7947 11.6404C13.911 12.067 14.0354 12.4916 14.1567 12.9169C14.1599 12.9284 14.1614 12.9403 14.1656 12.9619C14.062 12.8986 13.966 12.8411 13.8712 12.7816C13.5776 12.5977 13.2788 12.4207 12.9928 12.2263C12.7067 12.0319 12.4508 11.8046 12.2459 11.5243C12.0923 11.314 12.0104 11.0812 12.0079 10.818C12.0042 10.4245 12.0941 10.0487 12.2077 9.67637C12.2361 9.58293 12.2688 9.491 12.3016 9.39187Z" fill="#FFAD2C"/>
<path d="M14.7109 12.8734C14.7484 12.7257 14.7816 12.5933 14.8154 12.4612C14.8868 12.1823 14.9515 11.9015 15.032 11.6253C15.1274 11.2982 15.2616 10.9871 15.4466 10.6975C15.65 10.3804 15.9382 10.1956 16.3029 10.1141C16.6778 10.0303 17.0568 10.0122 17.4392 10.0181C17.4784 10.0188 17.5177 10.0181 17.5656 10.0181C17.5203 10.2776 17.4762 10.5307 17.4318 10.7849H18.218C18.2138 10.86 18.2161 10.9401 18.2039 11.018C18.1683 11.2464 18.1363 11.4759 18.0849 11.7009C18.0341 11.9238 17.9449 12.1336 17.8004 12.3165C17.6455 12.5126 17.4431 12.6428 17.2179 12.7427C16.8448 12.9081 16.4532 13.0079 16.0501 13.0628C15.7315 13.1057 15.4108 13.1337 15.0909 13.1673C15.0575 13.1707 15.0234 13.1673 14.9804 13.1673C15.0527 13.0892 15.1204 13.0152 15.1893 12.9415C15.4501 12.6614 15.7107 12.3811 15.9709 12.1006C15.9981 12.0711 16.0171 12.0635 16.056 12.0812C16.097 12.0986 16.1408 12.1084 16.1853 12.1102C16.2986 12.1167 16.3722 12.0673 16.3995 11.9576C16.4402 11.7938 16.3615 11.6344 16.1757 11.637C16.0493 11.6387 15.9387 11.7652 15.9509 11.8939C15.953 11.9154 15.9509 11.939 15.9604 11.957C15.9927 12.0214 15.9629 12.0518 15.9099 12.0863C15.5234 12.3374 15.1391 12.5915 14.754 12.8447C14.7446 12.8524 14.7343 12.8587 14.7109 12.8734Z" fill="#FFAD2C"/>
<path d="M14.7852 13.7069L16.1505 14.3392C16.1563 14.4083 16.1557 14.4693 16.1674 14.5279C16.1858 14.6194 16.2565 14.6739 16.3505 14.68C16.4885 14.6888 16.6052 14.6089 16.6287 14.4898C16.6628 14.3164 16.4857 14.1886 16.3547 14.2244C16.3052 14.2381 16.258 14.2591 16.2147 14.2866C16.1836 14.3068 16.1659 14.3023 16.1409 14.2822C15.8465 14.0467 15.5516 13.8114 15.2562 13.5764C15.1701 13.5079 15.0839 13.4397 14.9883 13.3635C15.1144 13.3545 15.2276 13.3461 15.3409 13.3383C15.5855 13.3215 15.8299 13.2967 16.0748 13.2905C16.3147 13.283 16.5548 13.2879 16.7941 13.3051C16.9673 13.3185 17.1402 13.3556 17.3095 13.3973C17.6678 13.4855 17.9255 13.7069 18.1112 14.0204C18.3141 14.3627 18.4539 14.7304 18.566 15.1101C18.5735 15.1352 18.5809 15.1604 18.5895 15.1898L17.811 15.2998C17.8981 15.5484 17.9834 15.7921 18.0718 16.0445C17.9362 16.0759 17.8051 16.1094 17.6733 16.136C17.4224 16.1876 17.1663 16.2096 16.9102 16.2017C16.5618 16.19 16.2613 16.0685 16.0099 15.8283C15.711 15.542 15.4901 15.1992 15.2928 14.8398C15.1005 14.4897 14.9436 14.1235 14.7985 13.7519C14.7944 13.7406 14.7919 13.7299 14.7852 13.7069Z" fill="#FFAD2C"/>
</g>
<defs>
<clipPath id="clip0_5575_350351">
<rect width="16" height="16" fill="white" transform="translate(4.5 2)"/>
</clipPath>
</defs>
</svg>
